<svg xmlns="http://www.w3.org/2000/svg" xmlns:xlink="http://www.w3.org/1999/xlink" contentStyleType="text/css" height="769px" preserveAspectRatio="none" style="width:592px;height:769px;background:#FFFFFF;" version="1.1" viewBox="0 0 592 769" width="592px" zoomAndPan="magnify"><defs/><g><!--entity eve_birads0--><g id="elem_eve_birads0"><a href="#eve-birads0" target="_top" title="#eve-birads0" xlink:actuate="onRequest" xlink:href="#eve-birads0" xlink:show="new" xlink:title="#eve-birads0" xlink:type="simple"><polygon fill="#A4DBD8" points="575,27.48,508,6,374,6,307,27.48,374,48.97,508,48.97,575,27.48" style="stroke:#FF0000;stroke-width:1.0;"/><text fill="#000000" font-family="sans-serif" font-size="14" lengthAdjust="spacing" textLength="27" x="379.5" y="24.5352">Last</text><text fill="#000000" font-family="sans-serif" font-size="14" lengthAdjust="spacing" textLength="4" x="406.5" y="24.5352">&#160;</text><text fill="#000000" font-family="sans-serif" font-size="14" lengthAdjust="spacing" textLength="92" x="410.5" y="24.5352">mammogram</text><text fill="#000000" font-family="sans-serif" font-size="14" lengthAdjust="spacing" textLength="39" x="374" y="41.0234">result</text><text fill="#000000" font-family="sans-serif" font-size="14" lengthAdjust="spacing" textLength="4" x="413" y="41.0234">&#160;</text><text fill="#000000" font-family="sans-serif" font-size="14" lengthAdjust="spacing" textLength="11" x="417" y="41.0234">is</text><text fill="#000000" font-family="sans-serif" font-size="14" lengthAdjust="spacing" textLength="4" x="428" y="41.0234">&#160;</text><text fill="#000000" font-family="sans-serif" font-size="14" lengthAdjust="spacing" textLength="57" x="432" y="41.0234">BI-RADS</text><text fill="#000000" font-family="sans-serif" font-size="14" lengthAdjust="spacing" textLength="4" x="489" y="41.0234">&#160;</text><text fill="#000000" font-family="sans-serif" font-size="14" lengthAdjust="spacing" textLength="15" x="493" y="41.0234">0?</text></a></g><!--entity eve_pendingmammo--><g id="elem_eve_pendingmammo"><a href="#eve-pendingmammo" target="_top" title="#eve-pendingmammo" xlink:actuate="onRequest" xlink:href="#eve-pendingmammo" xlink:show="new" xlink:title="#eve-pendingmammo" xlink:type="simple"><polygon fill="#A4DBD8" points="448,138.7,396,108.97,292,108.97,240,138.7,292,168.44,396,168.44,448,138.7" style="stroke:#FF0000;stroke-width:1.0;"/><text fill="#000000" font-family="sans-serif" font-size="14" lengthAdjust="spacing" textLength="56" x="316" y="127.5052">Pending</text><text fill="#000000" font-family="sans-serif" font-size="14" lengthAdjust="spacing" textLength="104" x="292" y="143.9934">mammography</text><text fill="#000000" font-family="sans-serif" font-size="14" lengthAdjust="spacing" textLength="44" x="322" y="160.4817">order?</text></a></g><!--entity eve_lastmammoafterpending--><g id="elem_eve_lastmammoafterpending"><a href="#eve-lastmammoafterpending" target="_top" title="#eve-lastmammoafterpending" xlink:actuate="onRequest" xlink:href="#eve-lastmammoafterpending" xlink:show="new" xlink:title="#eve-lastmammoafterpending" xlink:type="simple"><polygon fill="#A4DBD8" points="485,249.93,414.5,228.44,273.5,228.44,203,249.93,273.5,271.41,414.5,271.41,485,249.93" style="stroke:#FF0000;stroke-width:1.0;"/><text fill="#000000" font-family="sans-serif" font-size="14" lengthAdjust="spacing" textLength="27" x="275" y="246.9752">Last</text><text fill="#000000" font-family="sans-serif" font-size="14" lengthAdjust="spacing" textLength="4" x="302" y="246.9752">&#160;</text><text fill="#000000" font-family="sans-serif" font-size="14" lengthAdjust="spacing" textLength="92" x="306" y="246.9752">mammogram</text><text fill="#000000" font-family="sans-serif" font-size="14" lengthAdjust="spacing" textLength="4" x="398" y="246.9752">&#160;</text><text fill="#000000" font-family="sans-serif" font-size="14" lengthAdjust="spacing" textLength="11" x="402" y="246.9752">is</text><text fill="#000000" font-family="sans-serif" font-size="14" lengthAdjust="spacing" textLength="32" x="273.5" y="263.4634">after</text><text fill="#000000" font-family="sans-serif" font-size="14" lengthAdjust="spacing" textLength="4" x="305.5" y="263.4634">&#160;</text><text fill="#000000" font-family="sans-serif" font-size="14" lengthAdjust="spacing" textLength="57" x="309.5" y="263.4634">pending</text><text fill="#000000" font-family="sans-serif" font-size="14" lengthAdjust="spacing" textLength="4" x="366.5" y="263.4634">&#160;</text><text fill="#000000" font-family="sans-serif" font-size="14" lengthAdjust="spacing" textLength="44" x="370.5" y="263.4634">order?</text></a></g><!--entity eve_pendingmri--><g id="elem_eve_pendingmri"><a href="#eve-pendingmri" target="_top" title="#eve-pendingmri" xlink:actuate="onRequest" xlink:href="#eve-pendingmri" xlink:show="new" xlink:title="#eve-pendingmri" xlink:type="simple"><polygon fill="#A4DBD8" points="348,344.66,281.5,331.41,148.5,331.41,82,344.66,148.5,357.9,281.5,357.9,348,344.66" style="stroke:#FF0000;stroke-width:1.0;"/><text fill="#000000" font-family="sans-serif" font-size="14" lengthAdjust="spacing" textLength="56" x="148.5" y="349.9452">Pending</text><text fill="#000000" font-family="sans-serif" font-size="14" lengthAdjust="spacing" textLength="4" x="204.5" y="349.9452">&#160;</text><text fill="#000000" font-family="sans-serif" font-size="14" lengthAdjust="spacing" textLength="25" x="208.5" y="349.9452">MRI</text><text fill="#000000" font-family="sans-serif" font-size="14" lengthAdjust="spacing" textLength="4" x="233.5" y="349.9452">&#160;</text><text fill="#000000" font-family="sans-serif" font-size="14" lengthAdjust="spacing" textLength="44" x="237.5" y="349.9452">order?</text></a></g><!--entity eve_lastmriafterpending--><g id="elem_eve_lastmriafterpending"><a href="#eve-lastmriafterpending" target="_top" title="#eve-lastmriafterpending" xlink:actuate="onRequest" xlink:href="#eve-lastmriafterpending" xlink:show="new" xlink:title="#eve-lastmriafterpending" xlink:type="simple"><polygon fill="#A4DBD8" points="381,439.39,327.5,417.9,220.5,417.9,167,439.39,220.5,460.88,327.5,460.88,381,439.39" style="stroke:#FF0000;stroke-width:1.0;"/><text fill="#000000" font-family="sans-serif" font-size="14" lengthAdjust="spacing" textLength="27" x="220.5" y="436.4352">Last</text><text fill="#000000" font-family="sans-serif" font-size="14" lengthAdjust="spacing" textLength="4" x="247.5" y="436.4352">&#160;</text><text fill="#000000" font-family="sans-serif" font-size="14" lengthAdjust="spacing" textLength="25" x="251.5" y="436.4352">MRI</text><text fill="#000000" font-family="sans-serif" font-size="14" lengthAdjust="spacing" textLength="4" x="276.5" y="436.4352">&#160;</text><text fill="#000000" font-family="sans-serif" font-size="14" lengthAdjust="spacing" textLength="11" x="280.5" y="436.4352">is</text><text fill="#000000" font-family="sans-serif" font-size="14" lengthAdjust="spacing" textLength="4" x="291.5" y="436.4352">&#160;</text><text fill="#000000" font-family="sans-serif" font-size="14" lengthAdjust="spacing" textLength="32" x="295.5" y="436.4352">after</text><text fill="#000000" font-family="sans-serif" font-size="14" lengthAdjust="spacing" textLength="57" x="221.5" y="452.9234">pending</text><text fill="#000000" font-family="sans-serif" font-size="14" lengthAdjust="spacing" textLength="4" x="278.5" y="452.9234">&#160;</text><text fill="#000000" font-family="sans-serif" font-size="14" lengthAdjust="spacing" textLength="44" x="282.5" y="452.9234">order?</text></a></g><!--entity eve_pendingbiopsy--><g id="elem_eve_pendingbiopsy"><a href="#eve-pendingbiopsy" target="_top" title="#eve-pendingbiopsy" xlink:actuate="onRequest" xlink:href="#eve-pendingbiopsy" xlink:show="new" xlink:title="#eve-pendingbiopsy" xlink:type="simple"><polygon fill="#A4DBD8" points="253,542.37,200.5,520.88,95.5,520.88,43,542.37,95.5,563.86,200.5,563.86,253,542.37" style="stroke:#FF0000;stroke-width:1.0;"/><text fill="#000000" font-family="sans-serif" font-size="14" lengthAdjust="spacing" textLength="56" x="95.5" y="539.4152">Pending</text><text fill="#000000" font-family="sans-serif" font-size="14" lengthAdjust="spacing" textLength="4" x="151.5" y="539.4152">&#160;</text><text fill="#000000" font-family="sans-serif" font-size="14" lengthAdjust="spacing" textLength="45" x="155.5" y="539.4152">biopsy</text><text fill="#000000" font-family="sans-serif" font-size="14" lengthAdjust="spacing" textLength="44" x="126" y="555.9034">order?</text></a></g><!--entity eve_lastbiopsyafterpending--><g id="elem_eve_lastbiopsyafterpending"><a href="#eve-lastbiopsyafterpending" target="_top" title="#eve-lastbiopsyafterpending" xlink:actuate="onRequest" xlink:href="#eve-lastbiopsyafterpending" xlink:show="new" xlink:title="#eve-lastbiopsyafterpending" xlink:type="simple"><polygon fill="#A4DBD8" points="310,645.34,246.5,623.86,119.5,623.86,56,645.34,119.5,666.83,246.5,666.83,310,645.34" style="stroke:#FF0000;stroke-width:1.0;"/><text fill="#000000" font-family="sans-serif" font-size="14" lengthAdjust="spacing" textLength="27" x="119.5" y="642.3952">Last</text><text fill="#000000" font-family="sans-serif" font-size="14" lengthAdjust="spacing" textLength="4" x="146.5" y="642.3952">&#160;</text><text fill="#000000" font-family="sans-serif" font-size="14" lengthAdjust="spacing" textLength="45" x="150.5" y="642.3952">biopsy</text><text fill="#000000" font-family="sans-serif" font-size="14" lengthAdjust="spacing" textLength="4" x="195.5" y="642.3952">&#160;</text><text fill="#000000" font-family="sans-serif" font-size="14" lengthAdjust="spacing" textLength="11" x="199.5" y="642.3952">is</text><text fill="#000000" font-family="sans-serif" font-size="14" lengthAdjust="spacing" textLength="4" x="210.5" y="642.3952">&#160;</text><text fill="#000000" font-family="sans-serif" font-size="14" lengthAdjust="spacing" textLength="32" x="214.5" y="642.3952">after</text><text fill="#000000" font-family="sans-serif" font-size="14" lengthAdjust="spacing" textLength="57" x="130.5" y="658.8834">pending</text><text fill="#000000" font-family="sans-serif" font-size="14" lengthAdjust="spacing" textLength="4" x="187.5" y="658.8834">&#160;</text><text fill="#000000" font-family="sans-serif" font-size="14" lengthAdjust="spacing" textLength="44" x="191.5" y="658.8834">order?</text></a></g><!--entity act_testpending--><g id="elem_act_testpending"><a href="#act-testpending" target="_top" title="#act-testpending" xlink:actuate="onRequest" xlink:href="#act-testpending" xlink:show="new" xlink:title="#act-testpending" xlink:type="simple"><rect fill="#F1F1F1" height="36.4883" rx="2.5" ry="2.5" style="stroke:#181818;stroke-width:0.5;" width="176" x="310" y="726.83"/><text fill="#000000" font-family="sans-serif" font-size="14" lengthAdjust="spacing" textLength="56" x="320" y="750.3652">Pending</text><text fill="#000000" font-family="sans-serif" font-size="14" lengthAdjust="spacing" textLength="4" x="376" y="750.3652">&#160;</text><text fill="#000000" font-family="sans-serif" font-size="14" lengthAdjust="spacing" textLength="67" x="380" y="750.3652">screening</text><text fill="#000000" font-family="sans-serif" font-size="14" lengthAdjust="spacing" textLength="4" x="447" y="750.3652">&#160;</text><text fill="#000000" font-family="sans-serif" font-size="14" lengthAdjust="spacing" textLength="25" x="451" y="750.3652">test</text></a></g><!--entity act_notestpending--><g id="elem_act_notestpending"><a href="#act-notestpending" target="_top" title="#act-notestpending" xlink:actuate="onRequest" xlink:href="#act-notestpending" xlink:show="new" xlink:title="#act-notestpending" xlink:type="simple"><rect fill="#F1F1F1" height="36.4883" rx="2.5" ry="2.5" style="stroke:#181818;stroke-width:0.5;" width="200" x="7" y="726.83"/><text fill="#000000" font-family="sans-serif" font-size="14" lengthAdjust="spacing" textLength="19" x="17" y="750.3652">No</text><text fill="#000000" font-family="sans-serif" font-size="14" lengthAdjust="spacing" textLength="4" x="36" y="750.3652">&#160;</text><text fill="#000000" font-family="sans-serif" font-size="14" lengthAdjust="spacing" textLength="57" x="40" y="750.3652">pending</text><text fill="#000000" font-family="sans-serif" font-size="14" lengthAdjust="spacing" textLength="4" x="97" y="750.3652">&#160;</text><text fill="#000000" font-family="sans-serif" font-size="14" lengthAdjust="spacing" textLength="67" x="101" y="750.3652">screening</text><text fill="#000000" font-family="sans-serif" font-size="14" lengthAdjust="spacing" textLength="4" x="168" y="750.3652">&#160;</text><text fill="#000000" font-family="sans-serif" font-size="14" lengthAdjust="spacing" textLength="25" x="172" y="750.3652">test</text></a></g><!--link eve_birads0 to eve_pendingmammo--><g id="link_eve_birads0_eve_pendingmammo"><path d="M377.5,49.46 C377.5,66.42 377.5,84.08 377.5,102.78 " fill="none" id="eve_birads0-to-eve_pendingmammo" style="stroke:#181818;stroke-width:1.0;"/><polygon fill="#181818" points="377.5,108.78,381.5,99.78,377.5,103.78,373.5,99.78,377.5,108.78" style="stroke:#181818;stroke-width:1.0;"/><text fill="#000000" font-family="sans-serif" font-size="13" lengthAdjust="spacing" textLength="16" x="360.5" y="75.6884">no</text></g><!--link eve_birads0 to act_testpending--><g id="link_eve_birads0_act_testpending"><path d="M530.5,42.15 C530.5,144.28 530.5,745.32 530.5,745.32 C530.5,745.32 516.68,745.32 492.38,745.32 " fill="none" id="eve_birads0-to-act_testpending" style="stroke:#181818;stroke-width:1.0;"/><polygon fill="#181818" points="486.38,745.32,495.38,749.32,491.38,745.32,495.38,741.32,486.38,745.32" style="stroke:#181818;stroke-width:1.0;"/><text fill="#000000" font-family="sans-serif" font-size="13" lengthAdjust="spacing" textLength="21" x="508.5" y="412.3584">yes</text></g><!--link eve_pendingmammo to eve_pendingmri--><g id="link_eve_pendingmammo_eve_pendingmri"><path d="M240.3,139.32 C190.93,139.32 142.5,139.32 142.5,139.32 C142.5,139.32 142.5,281.54 142.5,326.12 " fill="none" id="eve_pendingmammo-to-eve_pendingmri" style="stroke:#181818;stroke-width:1.0;"/><polygon fill="#181818" points="142.5,332.12,146.5,323.12,142.5,327.12,138.5,323.12,142.5,332.12" style="stroke:#181818;stroke-width:1.0;"/><text fill="#000000" font-family="sans-serif" font-size="13" lengthAdjust="spacing" textLength="16" x="125.5" y="183.3884">no</text></g><!--link eve_pendingmammo to eve_lastmammoafterpending--><g id="link_eve_pendingmammo_eve_lastmammoafterpending"><path d="M344,168.8 C344,187.59 344,205.33 344,222.27 " fill="none" id="eve_pendingmammo-to-eve_lastmammoafterpending" style="stroke:#181818;stroke-width:1.0;"/><polygon fill="#181818" points="344,228.27,348,219.27,344,223.27,340,219.27,344,228.27" style="stroke:#181818;stroke-width:1.0;"/><text fill="#000000" font-family="sans-serif" font-size="13" lengthAdjust="spacing" textLength="21" x="322" y="195.1084">yes</text></g><!--link eve_lastmammoafterpending to eve_pendingmri--><g id="link_eve_lastmammoafterpending_eve_pendingmri"><path d="M275.5,271.9 C275.5,290.15 275.5,309.55 275.5,325.01 " fill="none" id="eve_lastmammoafterpending-to-eve_pendingmri" style="stroke:#181818;stroke-width:1.0;"/><polygon fill="#181818" points="275.5,331.01,279.5,322.01,275.5,326.01,271.5,322.01,275.5,331.01" style="stroke:#181818;stroke-width:1.0;"/><text fill="#000000" font-family="sans-serif" font-size="13" lengthAdjust="spacing" textLength="21" x="253.5" y="298.0184">yes</text></g><!--link eve_lastmammoafterpending to act_testpending--><g id="link_eve_lastmammoafterpending_act_testpending"><path d="M433,266.12 C433,340.29 433,641.34 433,720.43 " fill="none" id="eve_lastmammoafterpending-to-act_testpending" style="stroke:#181818;stroke-width:1.0;"/><polygon fill="#181818" points="433,726.43,437,717.43,433,721.43,429,717.43,433,726.43" style="stroke:#181818;stroke-width:1.0;"/><text fill="#000000" font-family="sans-serif" font-size="13" lengthAdjust="spacing" textLength="16" x="416" y="492.8384">no</text></g><!--link eve_pendingmri to eve_lastmriafterpending--><g id="link_eve_pendingmri_eve_lastmriafterpending"><path d="M257.5,358.23 C257.5,373.68 257.5,393.14 257.5,411.43 " fill="none" id="eve_pendingmri-to-eve_lastmriafterpending" style="stroke:#181818;stroke-width:1.0;"/><polygon fill="#181818" points="257.5,417.43,261.5,408.43,257.5,412.43,253.5,408.43,257.5,417.43" style="stroke:#181818;stroke-width:1.0;"/><text fill="#000000" font-family="sans-serif" font-size="13" lengthAdjust="spacing" textLength="21" x="235.5" y="384.3984">yes</text></g><!--link eve_lastmriafterpending to act_testpending--><g id="link_eve_lastmriafterpending_act_testpending"><path d="M357.33,449.21 C357.33,492.75 357.33,662.66 357.33,720.52 " fill="none" id="eve_lastmriafterpending-to-act_testpending" style="stroke:#181818;stroke-width:1.0;"/><polygon fill="#181818" points="357.33,726.52,361.33,717.52,357.33,721.52,353.33,717.52,357.33,726.52" style="stroke:#181818;stroke-width:1.0;"/><text fill="#000000" font-family="sans-serif" font-size="13" lengthAdjust="spacing" textLength="16" x="340.33" y="584.4384">no</text></g><!--link eve_lastmriafterpending to eve_pendingbiopsy--><g id="link_eve_lastmriafterpending_eve_pendingbiopsy"><path d="M210,456.86 C210,475.68 210,499.48 210,518.47 " fill="none" id="eve_lastmriafterpending-to-eve_pendingbiopsy" style="stroke:#181818;stroke-width:1.0;"/><polygon fill="#181818" points="210,524.47,214,515.47,210,519.47,206,515.47,210,524.47" style="stroke:#181818;stroke-width:1.0;"/><text fill="#000000" font-family="sans-serif" font-size="13" lengthAdjust="spacing" textLength="21" x="188" y="487.2284">yes</text></g><!--link eve_pendingmri to eve_pendingbiopsy--><g id="link_eve_pendingmri_eve_pendingbiopsy"><path d="M124.5,353.41 C124.5,382.63 124.5,471.42 124.5,514.59 " fill="none" id="eve_pendingmri-to-eve_pendingbiopsy" style="stroke:#181818;stroke-width:1.0;"/><polygon fill="#181818" points="124.5,520.59,128.5,511.59,124.5,515.59,120.5,511.59,124.5,520.59" style="stroke:#181818;stroke-width:1.0;"/><text fill="#000000" font-family="sans-serif" font-size="13" lengthAdjust="spacing" textLength="16" x="107.5" y="433.5684">no</text></g><!--link eve_pendingbiopsy to act_notestpending--><g id="link_eve_pendingbiopsy_act_notestpending"><path d="M49.5,545.55 C49.5,566.15 49.5,675.16 49.5,720.6 " fill="none" id="eve_pendingbiopsy-to-act_notestpending" style="stroke:#181818;stroke-width:1.0;"/><polygon fill="#181818" points="49.5,726.6,53.5,717.6,49.5,721.6,45.5,717.6,49.5,726.6" style="stroke:#181818;stroke-width:1.0;"/><text fill="#000000" font-family="sans-serif" font-size="13" lengthAdjust="spacing" textLength="16" x="32.5" y="632.6484">no</text></g><!--link eve_pendingbiopsy to eve_lastbiopsyafterpending--><g id="link_eve_pendingbiopsy_eve_lastbiopsyafterpending"><path d="M154.5,564.21 C154.5,581.68 154.5,600.07 154.5,617.54 " fill="none" id="eve_pendingbiopsy-to-eve_lastbiopsyafterpending" style="stroke:#181818;stroke-width:1.0;"/><polygon fill="#181818" points="154.5,623.54,158.5,614.54,154.5,618.54,150.5,614.54,154.5,623.54" style="stroke:#181818;stroke-width:1.0;"/><text fill="#000000" font-family="sans-serif" font-size="13" lengthAdjust="spacing" textLength="21" x="132.5" y="590.4384">yes</text></g><!--link eve_lastbiopsyafterpending to act_notestpending--><g id="link_eve_lastbiopsyafterpending_act_notestpending"><path d="M131.5,666.98 C131.5,684.74 131.5,703.63 131.5,720.49 " fill="none" id="eve_lastbiopsyafterpending-to-act_notestpending" style="stroke:#181818;stroke-width:1.0;"/><polygon fill="#181818" points="131.5,726.49,135.5,717.49,131.5,721.49,127.5,717.49,131.5,726.49" style="stroke:#181818;stroke-width:1.0;"/><text fill="#000000" font-family="sans-serif" font-size="13" lengthAdjust="spacing" textLength="21" x="109.5" y="693.3084">yes</text></g><!--link eve_lastbiopsyafterpending to act_testpending--><g id="link_eve_lastbiopsyafterpending_act_testpending"><path d="M308.45,646.32 C323.5,646.32 333.67,646.32 333.67,646.32 C333.67,646.32 333.67,691.89 333.67,720.5 " fill="none" id="eve_lastbiopsyafterpending-to-act_testpending" style="stroke:#181818;stroke-width:1.0;"/><polygon fill="#181818" points="333.67,726.5,337.67,717.5,333.67,721.5,329.67,717.5,333.67,726.5" style="stroke:#181818;stroke-width:1.0;"/><text fill="#000000" font-family="sans-serif" font-size="13" lengthAdjust="spacing" textLength="16" x="316.67" y="670.3684">no</text></g><!--SRC=[ZP9lQzim4CRV-rCSxMjlsTXWcDAHBB0LsZ6wGL-KKbJxPX-n9NDIHhEnxpxvJsnBbhlaHOYUU-wvdvGhA4FG1XcLETGOwHt9Mh2ee2I9ZGIAJQ6Y2sqE9Lv61JwBN4du4u7zt8XdglRL7MMcIE3D-nMqyaQaky-izZBxf4h52QpVRJVR3rtnsWR_A2ZTITJQDergRsRCEksBOlgjf17bkgHSLYXD0gdzHex-Heof4J8lCSZoziZoSiWhb5dVFuC-xwYjw-ArT_kpQw4DLAAgLDuy5gFUbmP8m-OglbrllyFguna83VWB7v-8HQPNS7z_ReznVtnu6DE-MGgI-H1O5mVxx1do659tbjPnJ9fgqpWFpbA9d_QwqFlzwDBQMtVhEfhw6S5YYFtczcg9cSadPfhnDlqdaJ8jShgb4EKJgLelFMvVT5axSORRUqyXxgnBqFEgdJNkza2kKqQKpI-3shG3H6eUcyCarKhnH7AZlge1So5Dga2U8zh4oKx7yQM_d0b8vLaypWGEg2E_pujY6e82hk1MZhd1Sc30__mpS8-8QShZRf-NxXPVo0wxPriwVyG1nlEvp9tQptV-sKNdyXwxTvpNmsDEwl70_W40]--></g></svg>