<svg xmlns="http://www.w3.org/2000/svg" xmlns:xlink="http://www.w3.org/1999/xlink" contentStyleType="text/css" height="485px" preserveAspectRatio="none" style="width:509px;height:485px;background:#FFFFFF;" version="1.1" viewBox="0 0 509 485" width="509px" zoomAndPan="magnify"><defs/><g><!--entity eve_geneticrisk--><g id="elem_eve_geneticrisk"><a href="#eve-geneticrisk" target="_top" title="#eve-geneticrisk" xlink:actuate="onRequest" xlink:href="#eve-geneticrisk" xlink:show="new" xlink:title="#eve-geneticrisk" xlink:type="simple"><polygon fill="#A4DBD8" points="492,27.49,430.5,6,307.5,6,246,27.49,307.5,48.98,430.5,48.98,492,27.49" style="stroke:#FF0000;stroke-width:1.0;"/><text fill="#000000" font-family="sans-serif" font-size="14" lengthAdjust="spacing" textLength="51" x="307.5" y="24.5352">Genetic</text><text fill="#000000" font-family="sans-serif" font-size="14" lengthAdjust="spacing" textLength="4" x="358.5" y="24.5352">&#160;</text><text fill="#000000" font-family="sans-serif" font-size="14" lengthAdjust="spacing" textLength="49" x="362.5" y="24.5352">marker</text><text fill="#000000" font-family="sans-serif" font-size="14" lengthAdjust="spacing" textLength="4" x="411.5" y="24.5352">&#160;</text><text fill="#000000" font-family="sans-serif" font-size="14" lengthAdjust="spacing" textLength="15" x="415.5" y="24.5352">or</text><text fill="#000000" font-family="sans-serif" font-size="14" lengthAdjust="spacing" textLength="74" x="332" y="41.0234">syndrome?</text></a></g><!--entity eve_chestxrt--><g id="elem_eve_chestxrt"><a href="#eve-chestxrt" target="_top" title="#eve-chestxrt" xlink:actuate="onRequest" xlink:href="#eve-chestxrt" xlink:show="new" xlink:title="#eve-chestxrt" xlink:type="simple"><polygon fill="#A4DBD8" points="396,130.47,343,108.98,237,108.98,184,130.47,237,151.96,343,151.96,396,130.47" style="stroke:#FF0000;stroke-width:1.0;"/><text fill="#000000" font-family="sans-serif" font-size="14" lengthAdjust="spacing" textLength="48" x="237" y="127.5152">History</text><text fill="#000000" font-family="sans-serif" font-size="14" lengthAdjust="spacing" textLength="4" x="285" y="127.5152">&#160;</text><text fill="#000000" font-family="sans-serif" font-size="14" lengthAdjust="spacing" textLength="14" x="289" y="127.5152">of</text><text fill="#000000" font-family="sans-serif" font-size="14" lengthAdjust="spacing" textLength="4" x="303" y="127.5152">&#160;</text><text fill="#000000" font-family="sans-serif" font-size="14" lengthAdjust="spacing" textLength="36" x="307" y="127.5152">chest</text><text fill="#000000" font-family="sans-serif" font-size="14" lengthAdjust="spacing" textLength="68" x="256" y="144.0034">radiation?</text></a></g><!--entity eve_hxbreastca--><g id="elem_eve_hxbreastca"><a href="#eve-hxbreastca" target="_top" title="#eve-hxbreastca" xlink:actuate="onRequest" xlink:href="#eve-hxbreastca" xlink:show="new" xlink:title="#eve-hxbreastca" xlink:type="simple"><polygon fill="#A4DBD8" points="325,233.45,272.5,211.96,167.5,211.96,115,233.45,167.5,254.93,272.5,254.93,325,233.45" style="stroke:#FF0000;stroke-width:1.0;"/><text fill="#000000" font-family="sans-serif" font-size="14" lengthAdjust="spacing" textLength="58" x="167.5" y="230.4952">Previous</text><text fill="#000000" font-family="sans-serif" font-size="14" lengthAdjust="spacing" textLength="4" x="225.5" y="230.4952">&#160;</text><text fill="#000000" font-family="sans-serif" font-size="14" lengthAdjust="spacing" textLength="43" x="229.5" y="230.4952">breast</text><text fill="#000000" font-family="sans-serif" font-size="14" lengthAdjust="spacing" textLength="51" x="194.5" y="246.9834">cancer?</text></a></g><!--entity eve_atypicalbx--><g id="elem_eve_atypicalbx"><a href="#eve-atypicalbx" target="_top" title="#eve-atypicalbx" xlink:actuate="onRequest" xlink:href="#eve-atypicalbx" xlink:show="new" xlink:title="#eve-atypicalbx" xlink:type="simple"><polygon fill="#A4DBD8" points="254,336.42,197,314.93,83,314.93,26,336.42,83,357.91,197,357.91,254,336.42" style="stroke:#FF0000;stroke-width:1.0;"/><text fill="#000000" font-family="sans-serif" font-size="14" lengthAdjust="spacing" textLength="58" x="83" y="333.4652">Previous</text><text fill="#000000" font-family="sans-serif" font-size="14" lengthAdjust="spacing" textLength="4" x="141" y="333.4652">&#160;</text><text fill="#000000" font-family="sans-serif" font-size="14" lengthAdjust="spacing" textLength="52" x="145" y="333.4652">atypical</text><text fill="#000000" font-family="sans-serif" font-size="14" lengthAdjust="spacing" textLength="51" x="114.5" y="349.9534">biopsy?</text></a></g><!--entity end_exclusions--><g id="elem_end_exclusions"><ellipse cx="356" cy="446.91" fill="#A4DBD8" rx="8" ry="8" style="stroke:#181818;stroke-width:0.5;"/><text fill="#000000" font-family="sans-serif" font-size="14" lengthAdjust="spacing" textLength="26" x="343" y="477.4452">end</text></g><!--entity act_noexclusions--><g id="elem_act_noexclusions"><a href="#act-noexclusions" target="_top" title="#act-noexclusions" xlink:actuate="onRequest" xlink:href="#act-noexclusions" xlink:show="new" xlink:title="#act-noexclusions" xlink:type="simple"><rect fill="#F1F1F1" height="52.9766" rx="2.5" ry="2.5" style="stroke:#181818;stroke-width:0.5;" width="266" x="7" y="420.42"/><text fill="#000000" font-family="sans-serif" font-size="14" lengthAdjust="spacing" textLength="19" x="17" y="443.9552">No</text><text fill="#000000" font-family="sans-serif" font-size="14" lengthAdjust="spacing" textLength="4" x="36" y="443.9552">&#160;</text><text fill="#000000" font-family="sans-serif" font-size="14" lengthAdjust="spacing" textLength="73" x="40" y="443.9552">exclusions</text><text fill="#000000" font-family="sans-serif" font-size="14" lengthAdjust="spacing" textLength="4" x="113" y="443.9552">&#160;</text><text fill="#000000" font-family="sans-serif" font-size="14" lengthAdjust="spacing" textLength="20" x="117" y="443.9552">for</text><text fill="#000000" font-family="sans-serif" font-size="14" lengthAdjust="spacing" textLength="4" x="137" y="443.9552">&#160;</text><text fill="#000000" font-family="sans-serif" font-size="14" lengthAdjust="spacing" textLength="51" x="141" y="443.9552">USPSTF</text><text fill="#000000" font-family="sans-serif" font-size="14" lengthAdjust="spacing" textLength="4" x="192" y="443.9552">&#160;</text><text fill="#000000" font-family="sans-serif" font-size="14" lengthAdjust="spacing" textLength="67" x="196" y="443.9552">screening</text><text fill="#000000" font-family="sans-serif" font-size="14" lengthAdjust="spacing" textLength="57" x="111.5" y="460.4434">pathway</text></a></g><!--link eve_geneticrisk to end_exclusions--><g id="link_eve_geneticrisk_end_exclusions"><path d="M444,44.72 C444,123.64 444,446.91 444,446.91 C444,446.91 393.02,446.91 370.76,446.91 " fill="none" id="eve_geneticrisk-to-end_exclusions" style="stroke:#181818;stroke-width:1.0;"/><polygon fill="#181818" points="364.76,446.91,373.76,450.91,369.76,446.91,373.76,442.91,364.76,446.91" style="stroke:#181818;stroke-width:1.0;"/><text fill="#000000" font-family="sans-serif" font-size="13" lengthAdjust="spacing" textLength="21" x="422" y="281.9984">yes</text></g><!--link eve_chestxrt to end_exclusions--><g id="link_eve_chestxrt_end_exclusions"><path d="M369.5,141.73 C369.5,197.66 369.5,437.03 369.5,440.86 " fill="none" id="eve_chestxrt-to-end_exclusions" style="stroke:#181818;stroke-width:1.0;"/><polygon fill="#181818" points="369.5,446.86,373.5,437.86,369.5,441.86,365.5,437.86,369.5,446.86" style="stroke:#181818;stroke-width:1.0;"/><text fill="#000000" font-family="sans-serif" font-size="13" lengthAdjust="spacing" textLength="21" x="347.5" y="290.8684">yes</text></g><!--link eve_hxbreastca to end_exclusions--><g id="link_eve_hxbreastca_end_exclusions"><path d="M325.14,233.91 C343.05,233.91 356,233.91 356,233.91 C356,233.91 356,391.72 356,432.03 " fill="none" id="eve_hxbreastca-to-end_exclusions" style="stroke:#181818;stroke-width:1.0;"/><polygon fill="#181818" points="356,438.03,360,429.03,356,433.03,352,429.03,356,438.03" style="stroke:#181818;stroke-width:1.0;"/><text fill="#000000" font-family="sans-serif" font-size="13" lengthAdjust="spacing" textLength="21" x="334" y="317.1084">yes</text></g><!--link eve_atypicalbx to end_exclusions--><g id="link_eve_atypicalbx_end_exclusions"><path d="M253.98,336.91 C300.02,336.91 342.5,336.91 342.5,336.91 C342.5,336.91 342.5,437.5 342.5,440.83 " fill="none" id="eve_atypicalbx-to-end_exclusions" style="stroke:#181818;stroke-width:1.0;"/><polygon fill="#181818" points="342.5,446.83,346.5,437.83,342.5,441.83,338.5,437.83,342.5,446.83" style="stroke:#181818;stroke-width:1.0;"/><text fill="#000000" font-family="sans-serif" font-size="13" lengthAdjust="spacing" textLength="21" x="320.5" y="344.1784">yes</text></g><!--link eve_geneticrisk to eve_chestxrt--><g id="link_eve_geneticrisk_eve_chestxrt"><path d="M321,49.33 C321,66.81 321,85.19 321,102.66 " fill="none" id="eve_geneticrisk-to-eve_chestxrt" style="stroke:#181818;stroke-width:1.0;"/><polygon fill="#181818" points="321,108.66,325,99.66,321,103.66,317,99.66,321,108.66" style="stroke:#181818;stroke-width:1.0;"/><text fill="#000000" font-family="sans-serif" font-size="13" lengthAdjust="spacing" textLength="16" x="304" y="75.5684">no</text></g><!--link eve_chestxrt to eve_hxbreastca--><g id="link_eve_chestxrt_eve_hxbreastca"><path d="M254.5,152.31 C254.5,169.78 254.5,188.17 254.5,205.64 " fill="none" id="eve_chestxrt-to-eve_hxbreastca" style="stroke:#181818;stroke-width:1.0;"/><polygon fill="#181818" points="254.5,211.64,258.5,202.64,254.5,206.64,250.5,202.64,254.5,211.64" style="stroke:#181818;stroke-width:1.0;"/><text fill="#000000" font-family="sans-serif" font-size="13" lengthAdjust="spacing" textLength="16" x="237.5" y="178.5384">no</text></g><!--link eve_hxbreastca to eve_atypicalbx--><g id="link_eve_hxbreastca_eve_atypicalbx"><path d="M184.5,255.28 C184.5,272.76 184.5,291.15 184.5,308.61 " fill="none" id="eve_hxbreastca-to-eve_atypicalbx" style="stroke:#181818;stroke-width:1.0;"/><polygon fill="#181818" points="184.5,314.61,188.5,305.61,184.5,309.61,180.5,305.61,184.5,314.61" style="stroke:#181818;stroke-width:1.0;"/><text fill="#000000" font-family="sans-serif" font-size="13" lengthAdjust="spacing" textLength="16" x="167.5" y="281.5184">no</text></g><!--link eve_atypicalbx to act_noexclusions--><g id="link_eve_atypicalbx_act_noexclusions"><path d="M140,358.25 C140,375.99 140,395.08 140,414.05 " fill="none" id="eve_atypicalbx-to-act_noexclusions" style="stroke:#181818;stroke-width:1.0;"/><polygon fill="#181818" points="140,420.05,144,411.05,140,415.05,136,411.05,140,420.05" style="stroke:#181818;stroke-width:1.0;"/><text fill="#000000" font-family="sans-serif" font-size="13" lengthAdjust="spacing" textLength="16" x="123" y="385.7184">no</text></g><!--SRC=[VP9FQzj04CNl-XI3StR_X1QAC2v9Gv93Mm99oI44CrvDf47Ih9bTfr9BltidLXH9Jh0E0hrv-zktRrLmHX0YAVdORYW99Si65MkeMEX90g-nyCaYnBQYPL9GWxaN-9k0FJ-muNfRtt8MYnG-Vlu0E_aKNNcXVYlPDrzvJU7aqzdfsPTk-Dt0DmMxKYW4MpIepsQbhDCklV8VBn6haufpgKbY2ixUfCc_HCb5bBoYDxCSzraEGzwHPC_hNuK-wbARQ_5-x_Ip2x9ss46DMf9QHn1QoTJNz7K6680UQPLt7kLGmjtTaKdpaNH_Fz0kEKIlBVW7S0M528ePOsGl0sqtQ3JsgFvxpBbIUcI_3R1MGiCu54SwC8gc6pZiAOFo9WVj3s275QpPRq8xaFh1kkb9Ws8an-hiOcRMRhT4iXKrhje6ErE0nSA4vN9qXREV7aQ61olqr_NLzSqv1AT4mfB31cFn6ziT45rSYH-ji1IcpSUQvTYxXlbyEKsIGaiX6TTxm39qTS0qr730j1Tfj7qAub_bcUpzufZ6cMpzufcasU_ioVKV]--></g></svg>