<svg xmlns="http://www.w3.org/2000/svg" xmlns:xlink="http://www.w3.org/1999/xlink" contentStyleType="text/css" height="359px" preserveAspectRatio="none" style="width:968px;height:359px;background:#FFFFFF;" version="1.1" viewBox="0 0 968 359" width="968px" zoomAndPan="magnify"><defs/><g><!--entity eve_latesttesttype--><g id="elem_eve_latesttesttype"><a href="#eve-latesttesttype" target="_top" title="#eve-latesttesttype" xlink:actuate="onRequest" xlink:href="#eve-latesttesttype" xlink:show="new" xlink:title="#eve-latesttesttype" xlink:type="simple"><polygon fill="#A4DBD8" points="455,27.49,385,6,245,6,175,27.49,245,48.97,385,48.97,455,27.49" style="stroke:#FF0000;stroke-width:1.0;"/><text fill="#000000" font-family="sans-serif" font-size="14" lengthAdjust="spacing" textLength="40" x="245" y="24.5352">Latest</text><text fill="#000000" font-family="sans-serif" font-size="14" lengthAdjust="spacing" textLength="4" x="285" y="24.5352">&#160;</text><text fill="#000000" font-family="sans-serif" font-size="14" lengthAdjust="spacing" textLength="67" x="289" y="24.5352">screening</text><text fill="#000000" font-family="sans-serif" font-size="14" lengthAdjust="spacing" textLength="4" x="356" y="24.5352">&#160;</text><text fill="#000000" font-family="sans-serif" font-size="14" lengthAdjust="spacing" textLength="25" x="360" y="24.5352">test</text><text fill="#000000" font-family="sans-serif" font-size="14" lengthAdjust="spacing" textLength="35" x="297.5" y="41.0234">type?</text></a></g><!--entity eve_actionablebirads--><g id="elem_eve_actionablebirads"><a href="#eve-actionablebirads" target="_top" title="#eve-actionablebirads" xlink:actuate="onRequest" xlink:href="#eve-actionablebirads" xlink:show="new" xlink:title="#eve-actionablebirads" xlink:type="simple"><polygon fill="#A4DBD8" points="455,122.22,385,108.97,245,108.97,175,122.22,245,135.46,385,135.46,455,122.22" style="stroke:#FF0000;stroke-width:1.0;"/><text fill="#000000" font-family="sans-serif" font-size="14" lengthAdjust="spacing" textLength="73" x="245" y="127.5052">Actionable</text><text fill="#000000" font-family="sans-serif" font-size="14" lengthAdjust="spacing" textLength="4" x="318" y="127.5052">&#160;</text><text fill="#000000" font-family="sans-serif" font-size="14" lengthAdjust="spacing" textLength="63" x="322" y="127.5052">BI-RADS?</text></a></g><!--entity act_updateduedate--><g id="elem_act_updateduedate"><a href="#act-updateduedate" target="_top" title="#act-updateduedate" xlink:actuate="onRequest" xlink:href="#act-updateduedate" xlink:show="new" xlink:title="#act-updateduedate" xlink:type="simple"><rect fill="#F1F1F1" height="36.4883" rx="2.5" ry="2.5" style="stroke:#181818;stroke-width:0.5;" width="168" x="7" y="195.46"/><text fill="#000000" font-family="sans-serif" font-size="14" lengthAdjust="spacing" textLength="49" x="17" y="218.9952">Update</text><text fill="#000000" font-family="sans-serif" font-size="14" lengthAdjust="spacing" textLength="4" x="66" y="218.9952">&#160;</text><text fill="#000000" font-family="sans-serif" font-size="14" lengthAdjust="spacing" textLength="31" x="70" y="218.9952">next</text><text fill="#000000" font-family="sans-serif" font-size="14" lengthAdjust="spacing" textLength="4" x="101" y="218.9952">&#160;</text><text fill="#000000" font-family="sans-serif" font-size="14" lengthAdjust="spacing" textLength="26" x="105" y="218.9952">due</text><text fill="#000000" font-family="sans-serif" font-size="14" lengthAdjust="spacing" textLength="4" x="131" y="218.9952">&#160;</text><text fill="#000000" font-family="sans-serif" font-size="14" lengthAdjust="spacing" textLength="30" x="135" y="218.9952">date</text></a></g><!--entity eve_biradsscore--><g id="elem_eve_biradsscore"><a href="#eve-biradsscore" target="_top" title="#eve-biradsscore" xlink:actuate="onRequest" xlink:href="#eve-biradsscore" xlink:show="new" xlink:title="#eve-biradsscore" xlink:type="simple"><polygon fill="#A4DBD8" points="489,213.71,437,200.46,333,200.46,281,213.71,333,226.95,437,226.95,489,213.71" style="stroke:#FF0000;stroke-width:1.0;"/><text fill="#000000" font-family="sans-serif" font-size="14" lengthAdjust="spacing" textLength="57" x="333" y="218.9952">BI-RADS</text><text fill="#000000" font-family="sans-serif" font-size="14" lengthAdjust="spacing" textLength="4" x="390" y="218.9952">&#160;</text><text fill="#000000" font-family="sans-serif" font-size="14" lengthAdjust="spacing" textLength="43" x="394" y="218.9952">score?</text></a></g><!--entity eve_biopsyresult--><g id="elem_eve_biopsyresult"><a href="#eve-biopsyresult" target="_top" title="#eve-biopsyresult" xlink:actuate="onRequest" xlink:href="#eve-biopsyresult" xlink:show="new" xlink:title="#eve-biopsyresult" xlink:type="simple"><polygon fill="#A4DBD8" points="724,122.22,665.5,108.97,548.5,108.97,490,122.22,548.5,135.46,665.5,135.46,724,122.22" style="stroke:#FF0000;stroke-width:1.0;"/><text fill="#000000" font-family="sans-serif" font-size="14" lengthAdjust="spacing" textLength="68" x="548.5" y="127.5052">Pathology</text><text fill="#000000" font-family="sans-serif" font-size="14" lengthAdjust="spacing" textLength="4" x="616.5" y="127.5052">&#160;</text><text fill="#000000" font-family="sans-serif" font-size="14" lengthAdjust="spacing" textLength="45" x="620.5" y="127.5052">result?</text></a></g><!--entity end_followup--><g id="elem_end_followup"><ellipse cx="228" cy="320.95" fill="#A4DBD8" rx="8" ry="8" style="stroke:#181818;stroke-width:0.5;"/><text fill="#000000" font-family="sans-serif" font-size="14" lengthAdjust="spacing" textLength="26" x="215" y="351.4852">end</text></g><!--entity act_intervalscreen--><g id="elem_act_intervalscreen"><a href="#act-intervalscreen" target="_top" title="#act-intervalscreen" xlink:actuate="onRequest" xlink:href="#act-intervalscreen" xlink:show="new" xlink:title="#act-intervalscreen" xlink:type="simple"><rect fill="#F1F1F1" height="36.4883" rx="2.5" ry="2.5" style="stroke:#181818;stroke-width:0.5;" width="186" x="291" y="302.71"/><text fill="#000000" font-family="sans-serif" font-size="14" lengthAdjust="spacing" textLength="40" x="301" y="326.2452">Order</text><text fill="#000000" font-family="sans-serif" font-size="14" lengthAdjust="spacing" textLength="4" x="341" y="326.2452">&#160;</text><text fill="#000000" font-family="sans-serif" font-size="14" lengthAdjust="spacing" textLength="51" x="345" y="326.2452">interval</text><text fill="#000000" font-family="sans-serif" font-size="14" lengthAdjust="spacing" textLength="4" x="396" y="326.2452">&#160;</text><text fill="#000000" font-family="sans-serif" font-size="14" lengthAdjust="spacing" textLength="67" x="400" y="326.2452">screening</text></a></g><!--entity act_biopsy--><g id="elem_act_biopsy"><a href="#act-biopsy" target="_top" title="#act-biopsy" xlink:actuate="onRequest" xlink:href="#act-biopsy" xlink:show="new" xlink:title="#act-biopsy" xlink:type="simple"><rect fill="#F1F1F1" height="36.4883" rx="2.5" ry="2.5" style="stroke:#181818;stroke-width:0.5;" width="147" x="512.5" y="302.71"/><text fill="#000000" font-family="sans-serif" font-size="14" lengthAdjust="spacing" textLength="54" x="522.5" y="326.2452">Referral</text><text fill="#000000" font-family="sans-serif" font-size="14" lengthAdjust="spacing" textLength="4" x="576.5" y="326.2452">&#160;</text><text fill="#000000" font-family="sans-serif" font-size="14" lengthAdjust="spacing" textLength="20" x="580.5" y="326.2452">for</text><text fill="#000000" font-family="sans-serif" font-size="14" lengthAdjust="spacing" textLength="4" x="600.5" y="326.2452">&#160;</text><text fill="#000000" font-family="sans-serif" font-size="14" lengthAdjust="spacing" textLength="45" x="604.5" y="326.2452">biopsy</text></a></g><!--entity act_highriskreferral--><g id="elem_act_highriskreferral"><a href="#act-highriskreferral" target="_top" title="#act-highriskreferral" xlink:actuate="onRequest" xlink:href="#act-highriskreferral" xlink:show="new" xlink:title="#act-highriskreferral" xlink:type="simple"><rect fill="#F1F1F1" height="36.4883" rx="2.5" ry="2.5" style="stroke:#181818;stroke-width:0.5;" width="237" x="725.5" y="195.46"/><text fill="#000000" font-family="sans-serif" font-size="14" lengthAdjust="spacing" textLength="54" x="735.5" y="218.9952">Referral</text><text fill="#000000" font-family="sans-serif" font-size="14" lengthAdjust="spacing" textLength="4" x="789.5" y="218.9952">&#160;</text><text fill="#000000" font-family="sans-serif" font-size="14" lengthAdjust="spacing" textLength="20" x="793.5" y="218.9952">for</text><text fill="#000000" font-family="sans-serif" font-size="14" lengthAdjust="spacing" textLength="4" x="813.5" y="218.9952">&#160;</text><text fill="#000000" font-family="sans-serif" font-size="14" lengthAdjust="spacing" textLength="31" x="817.5" y="218.9952">high</text><text fill="#000000" font-family="sans-serif" font-size="14" lengthAdjust="spacing" textLength="4" x="848.5" y="218.9952">&#160;</text><text fill="#000000" font-family="sans-serif" font-size="14" lengthAdjust="spacing" textLength="25" x="852.5" y="218.9952">risk</text><text fill="#000000" font-family="sans-serif" font-size="14" lengthAdjust="spacing" textLength="4" x="877.5" y="218.9952">&#160;</text><text fill="#000000" font-family="sans-serif" font-size="14" lengthAdjust="spacing" textLength="71" x="881.5" y="218.9952">evaluation</text></a></g><!--entity act_oncreferral--><g id="elem_act_oncreferral"><a href="#act-oncreferral" target="_top" title="#act-oncreferral" xlink:actuate="onRequest" xlink:href="#act-oncreferral" xlink:show="new" xlink:title="#act-oncreferral" xlink:type="simple"><rect fill="#F1F1F1" height="36.4883" rx="2.5" ry="2.5" style="stroke:#181818;stroke-width:0.5;" width="167" x="523.5" y="195.46"/><text fill="#000000" font-family="sans-serif" font-size="14" lengthAdjust="spacing" textLength="54" x="533.5" y="218.9952">Referral</text><text fill="#000000" font-family="sans-serif" font-size="14" lengthAdjust="spacing" textLength="4" x="587.5" y="218.9952">&#160;</text><text fill="#000000" font-family="sans-serif" font-size="14" lengthAdjust="spacing" textLength="20" x="591.5" y="218.9952">for</text><text fill="#000000" font-family="sans-serif" font-size="14" lengthAdjust="spacing" textLength="4" x="611.5" y="218.9952">&#160;</text><text fill="#000000" font-family="sans-serif" font-size="14" lengthAdjust="spacing" textLength="65" x="615.5" y="218.9952">Oncology</text></a></g><!--link eve_latesttesttype to eve_actionablebirads--><g id="link_eve_latesttesttype_eve_actionablebirads"><path d="M361.67,49.46 C361.67,67.71 361.67,87.11 361.67,102.57 " fill="none" id="eve_latesttesttype-to-eve_actionablebirads" style="stroke:#181818;stroke-width:1.0;"/><polygon fill="#181818" points="361.67,108.57,365.67,99.57,361.67,103.57,357.67,99.57,361.67,108.57" style="stroke:#181818;stroke-width:1.0;"/><text fill="#000000" font-family="sans-serif" font-size="13" lengthAdjust="spacing" textLength="83" x="277.67" y="75.5784">mammogram</text></g><!--link eve_latesttesttype to eve_actionablebirads--><g id="link_eve_latesttesttype_eve_actionablebirads"><path d="M268.33,49.46 C268.33,67.71 268.33,87.11 268.33,102.57 " fill="none" id="eve_latesttesttype-to-eve_actionablebirads-1" style="stroke:#181818;stroke-width:1.0;"/><polygon fill="#181818" points="268.33,108.57,272.33,99.57,268.33,103.57,264.33,99.57,268.33,108.57" style="stroke:#181818;stroke-width:1.0;"/><text fill="#000000" font-family="sans-serif" font-size="13" lengthAdjust="spacing" textLength="21" x="246.33" y="75.5784">mri</text></g><!--link eve_actionablebirads to act_updateduedate--><g id="link_eve_actionablebirads_act_updateduedate"><path d="M188,125.14 C188,140.36 188,209.95 188,209.95 C188,209.95 189.02,209.95 181.32,209.95 " fill="none" id="eve_actionablebirads-to-act_updateduedate" style="stroke:#181818;stroke-width:1.0;"/><polygon fill="#181818" points="175.32,209.95,184.32,213.95,180.32,209.95,184.32,205.95,175.32,209.95" style="stroke:#181818;stroke-width:1.0;"/><text fill="#000000" font-family="sans-serif" font-size="13" lengthAdjust="spacing" textLength="16" x="171" y="170.4484">no</text></g><!--link act_updateduedate to end_followup--><g id="link_act_updateduedate_end_followup"><path d="M175.42,218.95 C203.62,218.95 228,218.95 228,218.95 C228,218.95 228,281.59 228,306.25 " fill="none" id="act_updateduedate-to-end_followup" style="stroke:#181818;stroke-width:1.0;"/><polygon fill="#181818" points="228,312.25,232,303.25,228,307.25,224,303.25,228,312.25" style="stroke:#181818;stroke-width:1.0;"/></g><!--link eve_actionablebirads to eve_biradsscore--><g id="link_eve_actionablebirads_eve_biradsscore"><path d="M368,135.72 C368,153.01 368,176.83 368,194.15 " fill="none" id="eve_actionablebirads-to-eve_biradsscore" style="stroke:#181818;stroke-width:1.0;"/><polygon fill="#181818" points="368,200.15,372,191.15,368,195.15,364,191.15,368,200.15" style="stroke:#181818;stroke-width:1.0;"/><text fill="#000000" font-family="sans-serif" font-size="13" lengthAdjust="spacing" textLength="21" x="346" y="164.4984">yes</text></g><!--link eve_biradsscore to act_intervalscreen--><g id="link_eve_biradsscore_act_intervalscreen"><path d="M384,227.29 C384,246.34 384,275.06 384,296.45 " fill="none" id="eve_biradsscore-to-act_intervalscreen" style="stroke:#181818;stroke-width:1.0;"/><polygon fill="#181818" points="384,302.45,388,293.45,384,297.45,380,293.45,384,302.45" style="stroke:#181818;stroke-width:1.0;"/><text fill="#000000" font-family="sans-serif" font-size="13" lengthAdjust="spacing" textLength="59" x="324" y="261.4384">bi-rads 3</text></g><!--link eve_biradsscore to act_biopsy--><g id="link_eve_biradsscore_act_biopsy"><path d="M489.79,213.95 C506.28,213.95 518,213.95 518,213.95 C518,213.95 518,265.66 518,296.31 " fill="none" id="eve_biradsscore-to-act_biopsy" style="stroke:#181818;stroke-width:1.0;"/><polygon fill="#181818" points="518,302.31,522,293.31,518,297.31,514,293.31,518,302.31" style="stroke:#181818;stroke-width:1.0;"/><text fill="#000000" font-family="sans-serif" font-size="13" lengthAdjust="spacing" textLength="88" x="429" y="240.5984">bi-rads 4 or 5</text></g><!--link eve_biradsscore to end_followup--><g id="link_eve_biradsscore_end_followup"><path d="M286,215.42 C286,227.23 286,295.95 286,295.95 C286,295.95 237.57,295.95 234.17,295.95 " fill="none" id="eve_biradsscore-to-end_followup" style="stroke:#181818;stroke-width:1.0;"/><polygon fill="#181818" points="228.17,295.95,237.17,299.95,233.17,295.95,237.17,291.95,228.17,295.95" style="stroke:#181818;stroke-width:1.0;"/><text fill="#000000" font-family="sans-serif" font-size="13" lengthAdjust="spacing" textLength="59" x="226" y="281.1684">bi-rads 6</text></g><!--link eve_latesttesttype to eve_biopsyresult--><g id="link_eve_latesttesttype_eve_biopsyresult"><path d="M455.01,27.95 C529.95,27.95 607,27.95 607,27.95 C607,27.95 607,76.65 607,102.71 " fill="none" id="eve_latesttesttype-to-eve_biopsyresult" style="stroke:#181818;stroke-width:1.0;"/><polygon fill="#181818" points="607,108.71,611,99.71,607,103.71,603,99.71,607,108.71" style="stroke:#181818;stroke-width:1.0;"/><text fill="#000000" font-family="sans-serif" font-size="13" lengthAdjust="spacing" textLength="42" x="528.39" y="24.5184">biopsy</text></g><!--link eve_biopsyresult to end_followup--><g id="link_eve_biopsyresult_end_followup"><path d="M501.25,125.01 C501.25,147.62 501.25,299.95 501.25,299.95 C501.25,299.95 238.25,299.95 234.05,299.95 " fill="none" id="eve_biopsyresult-to-end_followup" style="stroke:#181818;stroke-width:1.0;"/><polygon fill="#181818" points="228.05,299.95,237.05,303.95,233.05,299.95,237.05,295.95,228.05,299.95" style="stroke:#181818;stroke-width:1.0;"/><text fill="#000000" font-family="sans-serif" font-size="13" lengthAdjust="spacing" textLength="53" x="398.12" y="296.5184">negative</text></g><!--link eve_biopsyresult to act_highriskreferral--><g id="link_eve_biopsyresult_act_highriskreferral"><path d="M707.25,126.4 C707.25,144.34 707.25,213.95 707.25,213.95 C707.25,213.95 708.27,213.95 719.13,213.95 " fill="none" id="eve_biopsyresult-to-act_highriskreferral" style="stroke:#181818;stroke-width:1.0;"/><polygon fill="#181818" points="725.13,213.95,716.13,209.95,720.13,213.95,716.13,217.95,725.13,213.95" style="stroke:#181818;stroke-width:1.0;"/><text fill="#000000" font-family="sans-serif" font-size="13" lengthAdjust="spacing" textLength="49" x="657.25" y="175.6784">atypical</text></g><!--link eve_biopsyresult to act_oncreferral--><g id="link_eve_biopsyresult_act_oncreferral"><path d="M607,135.72 C607,151.42 607,171.45 607,189.07 " fill="none" id="eve_biopsyresult-to-act_oncreferral" style="stroke:#181818;stroke-width:1.0;"/><polygon fill="#181818" points="607,195.07,611,186.07,607,190.07,603,186.07,607,195.07" style="stroke:#181818;stroke-width:1.0;"/><text fill="#000000" font-family="sans-serif" font-size="13" lengthAdjust="spacing" textLength="63" x="543" y="161.9684">malignant</text></g><!--SRC=[bPJRYjim48Rl_HH3zjezxfPYGahIG5lOicNRqejb2LfvOel8Kf3aD6xPT-_8XrXnd4032UYVcKzpYdAH8bY71hMhjXZPZL1RPbW1KYZq4cZZSXrDhQiapg8SzopJ2lv6G9-lR2-AilWbKfSdyFhc5TJoWl7D9wDBbNxKKfi4vjVBnV9zOxmby8zSy8r2QoceLrjdWscZVTP6_D7ACJcN8bC5AfS0fryqqNDaa3kcCecZkRpfShaCUO4gRUDFahvgiYQlwSj1zPDRvj0wiDmWAg4og8- -Nnycm2pW3bUozgc_leyF3rUaniVgusFFd7Cdj69FLD7YItm_NtxlMUnWUnA6fRQZ3NNYzNsP_DocT1iet3j8ImH_gf4KjYfh8ycr3_58Z8_4CBas8wfOcw36vjPQx58Af13mZT4QIPrLD5zRIXSozDPMZTf3UeqeN1Zk2w9fDM4gNQsrbFftkONfb8wpMLZudKdHWF13tZ7PZ-bGV6TgB5trn-fnB-znZSOGRAqDDEaTQCsnepId2z6vo78mmcweV2PBvaTuO7cZjvakegKEzGlyEyNhJX-OMl4XBf28TBgkSJmRsxi42bOKEgCN8XgpKzZ9RYMWT7IY-Wk2APwZ3POiWGfjD13RIu-dbz2GulglylQCVpEdtk-QdZgu6N4Ey-pTt_rNrumuxnukUzBkLZGqdEIXCAFDsU6OvzWY9S3eJi6PF1SHx8IVitykcNB_0000]--></g></svg>