<svg xmlns="http://www.w3.org/2000/svg" xmlns:xlink="http://www.w3.org/1999/xlink" contentStyleType="text/css" height="359px" preserveAspectRatio="none" style="width:961px;height:359px;background:#FFFFFF;" version="1.1" viewBox="0 0 961 359" width="961px" zoomAndPan="magnify"><defs/><g><!--entity eve_latesttesttype--><g id="elem_eve_latesttesttype"><a href="#eve-latesttesttype" target="_top" title="#eve-latesttesttype" xlink:actuate="onRequest" xlink:href="#eve-latesttesttype" xlink:show="new" xlink:title="#eve-latesttesttype" xlink:type="simple"><polygon fill="#A4DBD8" points="488.95,27.49,418.62,6,277.95,6,207.62,27.49,277.95,48.97,418.62,48.97,488.95,27.49" style="stroke:#FF0000;stroke-width:1.0;"/><text fill="#000000" font-family="sans-serif" font-size="14" lengthAdjust="spacing" textLength="40.6055" x="277.9515" y="24.5352">Latest</text><text fill="#000000" font-family="sans-serif" font-size="14" lengthAdjust="spacing" textLength="4.4297" x="318.557" y="24.5352">&#160;</text><text fill="#000000" font-family="sans-serif" font-size="14" lengthAdjust="spacing" textLength="65.7891" x="322.9867" y="24.5352">screening</text><text fill="#000000" font-family="sans-serif" font-size="14" lengthAdjust="spacing" textLength="4.4297" x="388.7758" y="24.5352">&#160;</text><text fill="#000000" font-family="sans-serif" font-size="14" lengthAdjust="spacing" textLength="25.4092" x="393.2054" y="24.5352">test</text><text fill="#000000" font-family="sans-serif" font-size="14" lengthAdjust="spacing" textLength="35.0684" x="330.7489" y="41.0234">type?</text></a></g><!--entity eve_actionablebirads--><g id="elem_eve_actionablebirads"><a href="#eve-actionablebirads" target="_top" title="#eve-actionablebirads" xlink:actuate="onRequest" xlink:href="#eve-actionablebirads" xlink:show="new" xlink:title="#eve-actionablebirads" xlink:type="simple"><polygon fill="#A4DBD8" points="487.14,122.22,417.71,108.97,278.86,108.97,209.43,122.22,278.86,135.46,417.71,135.46,487.14,122.22" style="stroke:#FF0000;stroke-width:1.0;"/><text fill="#000000" font-family="sans-serif" font-size="14" lengthAdjust="spacing" textLength="71.791" x="278.8558" y="127.5052">Actionable</text><text fill="#000000" font-family="sans-serif" font-size="14" lengthAdjust="spacing" textLength="4.4297" x="350.6468" y="127.5052">&#160;</text><text fill="#000000" font-family="sans-serif" font-size="14" lengthAdjust="spacing" textLength="62.6309" x="355.0765" y="127.5052">BI-RADS?</text></a></g><!--entity act_updateduedate--><g id="elem_act_updateduedate"><a href="#act-updateduedate" target="_top" title="#act-updateduedate" xlink:actuate="onRequest" xlink:href="#act-updateduedate" xlink:show="new" xlink:title="#act-updateduedate" xlink:type="simple"><rect fill="#F1F1F1" height="36.4883" rx="2.5" ry="2.5" style="stroke:#181818;stroke-width:0.5;" width="166.5693" x="7" y="195.46"/><text fill="#000000" font-family="sans-serif" font-size="14" lengthAdjust="spacing" textLength="48.0908" x="17" y="218.9952">Update</text><text fill="#000000" font-family="sans-serif" font-size="14" lengthAdjust="spacing" textLength="4.4297" x="65.0908" y="218.9952">&#160;</text><text fill="#000000" font-family="sans-serif" font-size="14" lengthAdjust="spacing" textLength="30.3105" x="69.5205" y="218.9952">next</text><text fill="#000000" font-family="sans-serif" font-size="14" lengthAdjust="spacing" textLength="4.4297" x="99.8311" y="218.9952">&#160;</text><text fill="#000000" font-family="sans-serif" font-size="14" lengthAdjust="spacing" textLength="25.2998" x="104.2607" y="218.9952">due</text><text fill="#000000" font-family="sans-serif" font-size="14" lengthAdjust="spacing" textLength="4.4297" x="129.5605" y="218.9952">&#160;</text><text fill="#000000" font-family="sans-serif" font-size="14" lengthAdjust="spacing" textLength="29.5791" x="133.9902" y="218.9952">date</text></a></g><!--entity eve_biradsscore--><g id="elem_eve_biradsscore"><a href="#eve-biradsscore" target="_top" title="#eve-biradsscore" xlink:actuate="onRequest" xlink:href="#eve-biradsscore" xlink:show="new" xlink:title="#eve-biradsscore" xlink:type="simple"><polygon fill="#A4DBD8" points="485.78,213.71,434.03,200.46,330.54,200.46,278.79,213.71,330.54,226.95,434.03,226.95,485.78,213.71" style="stroke:#FF0000;stroke-width:1.0;"/><text fill="#000000" font-family="sans-serif" font-size="14" lengthAdjust="spacing" textLength="56.7246" x="330.538" y="218.9952">BI-RADS</text><text fill="#000000" font-family="sans-serif" font-size="14" lengthAdjust="spacing" textLength="4.4297" x="387.2627" y="218.9952">&#160;</text><text fill="#000000" font-family="sans-serif" font-size="14" lengthAdjust="spacing" textLength="42.3418" x="391.6923" y="218.9952">score?</text></a></g><!--entity eve_biopsyresult--><g id="elem_eve_biopsyresult"><a href="#eve-biopsyresult" target="_top" title="#eve-biopsyresult" xlink:actuate="onRequest" xlink:href="#eve-biopsyresult" xlink:show="new" xlink:title="#eve-biopsyresult" xlink:type="simple"><polygon fill="#A4DBD8" points="753.94,122.22,696.11,108.97,580.46,108.97,522.63,122.22,580.46,135.46,696.11,135.46,753.94,122.22" style="stroke:#FF0000;stroke-width:1.0;"/><text fill="#000000" font-family="sans-serif" font-size="14" lengthAdjust="spacing" textLength="66.6846" x="580.4586" y="127.5052">Pathology</text><text fill="#000000" font-family="sans-serif" font-size="14" lengthAdjust="spacing" textLength="4.4297" x="647.1432" y="127.5052">&#160;</text><text fill="#000000" font-family="sans-serif" font-size="14" lengthAdjust="spacing" textLength="44.543" x="651.5729" y="127.5052">result?</text></a></g><!--entity end_followup--><g id="elem_end_followup"><ellipse cx="226.28" cy="320.95" fill="#A4DBD8" rx="8" ry="8" style="stroke:#181818;stroke-width:0.5;"/><text fill="#000000" font-family="sans-serif" font-size="14" lengthAdjust="spacing" textLength="25.2998" x="213.6301" y="351.4852">end</text></g><!--entity act_intervalscreen--><g id="elem_act_intervalscreen"><a href="#act-intervalscreen" target="_top" title="#act-intervalscreen" xlink:actuate="onRequest" xlink:href="#act-intervalscreen" xlink:show="new" xlink:title="#act-intervalscreen" xlink:type="simple"><rect fill="#F1F1F1" height="36.4883" rx="2.5" ry="2.5" style="stroke:#181818;stroke-width:0.5;" width="184.1172" x="289.23" y="302.71"/><text fill="#000000" font-family="sans-serif" font-size="14" lengthAdjust="spacing" textLength="38.9443" x="299.23" y="326.2452">Order</text><text fill="#000000" font-family="sans-serif" font-size="14" lengthAdjust="spacing" textLength="4.4297" x="338.1743" y="326.2452">&#160;</text><text fill="#000000" font-family="sans-serif" font-size="14" lengthAdjust="spacing" textLength="50.5244" x="342.604" y="326.2452">interval</text><text fill="#000000" font-family="sans-serif" font-size="14" lengthAdjust="spacing" textLength="4.4297" x="393.1284" y="326.2452">&#160;</text><text fill="#000000" font-family="sans-serif" font-size="14" lengthAdjust="spacing" textLength="65.7891" x="397.5581" y="326.2452">screening</text></a></g><!--entity act_biopsy--><g id="elem_act_biopsy"><a href="#act-biopsy" target="_top" title="#act-biopsy" xlink:actuate="onRequest" xlink:href="#act-biopsy" xlink:show="new" xlink:title="#act-biopsy" xlink:type="simple"><rect fill="#F1F1F1" height="36.4883" rx="2.5" ry="2.5" style="stroke:#181818;stroke-width:0.5;" width="145.8906" x="508.34" y="302.71"/><text fill="#000000" font-family="sans-serif" font-size="14" lengthAdjust="spacing" textLength="52.835" x="518.34" y="326.2452">Referral</text><text fill="#000000" font-family="sans-serif" font-size="14" lengthAdjust="spacing" textLength="4.4297" x="571.175" y="326.2452">&#160;</text><text fill="#000000" font-family="sans-serif" font-size="14" lengthAdjust="spacing" textLength="19.4756" x="575.6046" y="326.2452">for</text><text fill="#000000" font-family="sans-serif" font-size="14" lengthAdjust="spacing" textLength="4.4297" x="595.0802" y="326.2452">&#160;</text><text fill="#000000" font-family="sans-serif" font-size="14" lengthAdjust="spacing" textLength="44.7207" x="599.5099" y="326.2452">biopsy</text></a></g><!--entity act_oncreferral--><g id="elem_act_oncreferral"><a href="#act-oncreferral" target="_top" title="#act-oncreferral" xlink:actuate="onRequest" xlink:href="#act-oncreferral" xlink:show="new" xlink:title="#act-oncreferral" xlink:type="simple"><rect fill="#F1F1F1" height="36.4883" rx="2.5" ry="2.5" style="stroke:#181818;stroke-width:0.5;" width="165.1953" x="790.69" y="195.46"/><text fill="#000000" font-family="sans-serif" font-size="14" lengthAdjust="spacing" textLength="52.835" x="800.69" y="218.9952">Referral</text><text fill="#000000" font-family="sans-serif" font-size="14" lengthAdjust="spacing" textLength="4.4297" x="853.525" y="218.9952">&#160;</text><text fill="#000000" font-family="sans-serif" font-size="14" lengthAdjust="spacing" textLength="19.4756" x="857.9546" y="218.9952">for</text><text fill="#000000" font-family="sans-serif" font-size="14" lengthAdjust="spacing" textLength="4.4297" x="877.4302" y="218.9952">&#160;</text><text fill="#000000" font-family="sans-serif" font-size="14" lengthAdjust="spacing" textLength="64.0254" x="881.8599" y="218.9952">Oncology</text></a></g><!--entity act_highriskreferral--><g id="elem_act_highriskreferral"><a href="#act-highriskreferral" target="_top" title="#act-highriskreferral" xlink:actuate="onRequest" xlink:href="#act-highriskreferral" xlink:show="new" xlink:title="#act-highriskreferral" xlink:type="simple"><rect fill="#F1F1F1" height="36.4883" rx="2.5" ry="2.5" style="stroke:#181818;stroke-width:0.5;" width="235.0928" x="520.74" y="195.46"/><text fill="#000000" font-family="sans-serif" font-size="14" lengthAdjust="spacing" textLength="52.835" x="530.74" y="218.9952">Referral</text><text fill="#000000" font-family="sans-serif" font-size="14" lengthAdjust="spacing" textLength="4.4297" x="583.575" y="218.9952">&#160;</text><text fill="#000000" font-family="sans-serif" font-size="14" lengthAdjust="spacing" textLength="19.4756" x="588.0046" y="218.9952">for</text><text fill="#000000" font-family="sans-serif" font-size="14" lengthAdjust="spacing" textLength="4.4297" x="607.4802" y="218.9952">&#160;</text><text fill="#000000" font-family="sans-serif" font-size="14" lengthAdjust="spacing" textLength="30.1533" x="611.9099" y="218.9952">high</text><text fill="#000000" font-family="sans-serif" font-size="14" lengthAdjust="spacing" textLength="4.4297" x="642.0632" y="218.9952">&#160;</text><text fill="#000000" font-family="sans-serif" font-size="14" lengthAdjust="spacing" textLength="25.0947" x="646.4929" y="218.9952">risk</text><text fill="#000000" font-family="sans-serif" font-size="14" lengthAdjust="spacing" textLength="4.4297" x="671.5877" y="218.9952">&#160;</text><text fill="#000000" font-family="sans-serif" font-size="14" lengthAdjust="spacing" textLength="69.8154" x="676.0173" y="218.9952">evaluation</text></a></g><!--link eve_latesttesttype to eve_actionablebirads--><g id="link_eve_latesttesttype_eve_actionablebirads"><path d="M394.57,49.46 C394.57,67.71 394.57,87.11 394.57,102.57 " fill="none" id="eve_latesttesttype-to-eve_actionablebirads" style="stroke:#181818;stroke-width:1.0;"/><polygon fill="#181818" points="394.57,108.57,398.57,99.57,394.57,103.57,390.57,99.57,394.57,108.57" style="stroke:#181818;stroke-width:1.0;"/><text fill="#000000" font-family="sans-serif" font-size="13" lengthAdjust="spacing" textLength="84.3159" x="309.57" y="75.5784">mammogram</text></g><!--link eve_latesttesttype to eve_actionablebirads--><g id="link_eve_latesttesttype_eve_actionablebirads"><path d="M302,49.46 C302,67.71 302,87.11 302,102.57 " fill="none" id="eve_latesttesttype-to-eve_actionablebirads-1" style="stroke:#181818;stroke-width:1.0;"/><polygon fill="#181818" points="302,108.57,306,99.57,302,103.57,298,99.57,302,108.57" style="stroke:#181818;stroke-width:1.0;"/><text fill="#000000" font-family="sans-serif" font-size="13" lengthAdjust="spacing" textLength="21.2139" x="280" y="75.5784">mri</text></g><!--link eve_actionablebirads to act_updateduedate--><g id="link_eve_actionablebirads_act_updateduedate"><path d="M231.36,126.9 C231.36,144.99 231.36,209.29 231.36,209.29 C231.36,209.29 210.36,209.29 179.98,209.29 " fill="none" id="eve_actionablebirads-to-act_updateduedate" style="stroke:#181818;stroke-width:1.0;"/><polygon fill="#181818" points="173.98,209.29,182.98,213.29,178.98,209.29,182.98,205.29,173.98,209.29" style="stroke:#181818;stroke-width:1.0;"/><text fill="#000000" font-family="sans-serif" font-size="13" lengthAdjust="spacing" textLength="16.0532" x="214.36" y="193.3584">no</text></g><!--link act_updateduedate to end_followup--><g id="link_act_updateduedate_end_followup"><path d="M174.01,218.12 C190.83,218.12 203.45,218.12 203.45,218.12 C203.45,218.12 203.45,311.76 203.45,314.88 " fill="none" id="act_updateduedate-to-end_followup" style="stroke:#181818;stroke-width:1.0;"/><polygon fill="#181818" points="203.45,320.88,207.45,311.88,203.45,315.88,199.45,311.88,203.45,320.88" style="stroke:#181818;stroke-width:1.0;"/></g><!--link eve_actionablebirads to eve_biradsscore--><g id="link_eve_actionablebirads_eve_biradsscore"><path d="M382.28,135.72 C382.28,153.01 382.28,176.83 382.28,194.15 " fill="none" id="eve_actionablebirads-to-eve_biradsscore" style="stroke:#181818;stroke-width:1.0;"/><polygon fill="#181818" points="382.28,200.15,386.28,191.15,382.28,195.15,378.28,191.15,382.28,200.15" style="stroke:#181818;stroke-width:1.0;"/><text fill="#000000" font-family="sans-serif" font-size="13" lengthAdjust="spacing" textLength="20.6616" x="361.28" y="164.4984">yes</text></g><!--link eve_biradsscore to act_intervalscreen--><g id="link_eve_biradsscore_act_intervalscreen"><path d="M381.28,227.29 C381.28,246.34 381.28,275.06 381.28,296.45 " fill="none" id="eve_biradsscore-to-act_intervalscreen" style="stroke:#181818;stroke-width:1.0;"/><polygon fill="#181818" points="381.28,302.45,385.28,293.45,381.28,297.45,377.28,293.45,381.28,302.45" style="stroke:#181818;stroke-width:1.0;"/><text fill="#000000" font-family="sans-serif" font-size="13" lengthAdjust="spacing" textLength="59.103" x="321.28" y="261.4384">bi-rads 3</text></g><!--link eve_biradsscore to act_biopsy--><g id="link_eve_biradsscore_act_biopsy"><path d="M487.79,213.71 C504.61,213.71 516.61,213.71 516.61,213.71 C516.61,213.71 516.61,265.54 516.61,296.27 " fill="none" id="eve_biradsscore-to-act_biopsy" style="stroke:#181818;stroke-width:1.0;"/><polygon fill="#181818" points="516.61,302.27,520.61,293.27,516.61,297.27,512.61,293.27,516.61,302.27" style="stroke:#181818;stroke-width:1.0;"/><text fill="#000000" font-family="sans-serif" font-size="13" lengthAdjust="spacing" textLength="88.8545" x="427.61" y="240.1484">bi-rads 4 or 5</text></g><!--link eve_biradsscore to end_followup--><g id="link_eve_biradsscore_end_followup"><path d="M284.01,215.41 C284.01,227.17 284.01,295.54 284.01,295.54 C284.01,295.54 235.84,295.54 232.45,295.54 " fill="none" id="eve_biradsscore-to-end_followup" style="stroke:#181818;stroke-width:1.0;"/><polygon fill="#181818" points="226.45,295.54,235.45,299.54,231.45,295.54,235.45,291.54,226.45,295.54" style="stroke:#181818;stroke-width:1.0;"/><text fill="#000000" font-family="sans-serif" font-size="13" lengthAdjust="spacing" textLength="59.103" x="224.01" y="280.8184">bi-rads 6</text></g><!--link eve_latesttesttype to eve_biopsyresult--><g id="link_eve_latesttesttype_eve_biopsyresult"><path d="M490.31,27.49 C563.79,27.49 638.28,27.49 638.28,27.49 C638.28,27.49 638.28,76.45 638.28,102.64 " fill="none" id="eve_latesttesttype-to-eve_biopsyresult" style="stroke:#181818;stroke-width:1.0;"/><polygon fill="#181818" points="638.28,108.64,642.28,99.64,638.28,103.64,634.28,99.64,638.28,108.64" style="stroke:#181818;stroke-width:1.0;"/><text fill="#000000" font-family="sans-serif" font-size="13" lengthAdjust="spacing" textLength="41.5264" x="562.88" y="24.0584">biopsy</text></g><!--link eve_biopsyresult to act_oncreferral--><g id="link_eve_biopsyresult_act_oncreferral"><path d="M756.13,122.22 C814.76,122.22 873.28,122.22 873.28,122.22 C873.28,122.22 873.28,162.46 873.28,189.19 " fill="none" id="eve_biopsyresult-to-act_oncreferral" style="stroke:#181818;stroke-width:1.0;"/><polygon fill="#181818" points="873.28,195.19,877.28,186.19,873.28,190.19,869.28,186.19,873.28,195.19" style="stroke:#181818;stroke-width:1.0;"/><text fill="#000000" font-family="sans-serif" font-size="13" lengthAdjust="spacing" textLength="63.1147" x="787.19" y="118.7884">malignant</text></g><!--link eve_biopsyresult to act_highriskreferral--><g id="link_eve_biopsyresult_act_highriskreferral"><path d="M638.28,135.72 C638.28,151.42 638.28,171.45 638.28,189.07 " fill="none" id="eve_biopsyresult-to-act_highriskreferral" style="stroke:#181818;stroke-width:1.0;"/><polygon fill="#181818" points="638.28,195.07,642.28,186.07,638.28,190.07,634.28,186.07,638.28,195.07" style="stroke:#181818;stroke-width:1.0;"/><text fill="#000000" font-family="sans-serif" font-size="13" lengthAdjust="spacing" textLength="48.3691" x="589.28" y="161.9684">atypical</text></g><!--link eve_biopsyresult to end_followup--><g id="link_eve_biopsyresult_end_followup"><path d="M520.73,122.22 C515.54,122.22 512.47,122.22 512.47,122.22 C512.47,122.22 512.47,299.12 512.47,299.12 C512.47,299.12 236.74,299.12 232.34,299.12 " fill="none" id="eve_biopsyresult-to-end_followup" style="stroke:#181818;stroke-width:1.0;"/><polygon fill="#181818" points="226.34,299.12,235.34,303.12,231.34,299.12,235.34,295.12,226.34,299.12" style="stroke:#181818;stroke-width:1.0;"/><text fill="#000000" font-family="sans-serif" font-size="13" lengthAdjust="spacing" textLength="53.187" x="407.98" y="295.6884">negative</text></g><!--SRC=[bLJRYjim47ttLmpPP_UwMue9AKa3RM7BbcrB7vObQEs9BI9BGPBJk6N_lIFBZcNd0WqaC6VEdBb61SyGZ4MDojPRZCo6ootJh0J19Je8bBQ5YgR6rW9dKO5xbYi9VoEWprUsvsLL_kAPBH9uVVCA6dZ1qiqdhIgPVLH2wGJcryl5yhrttfBmZuAd6ud6K52FjcIDcSS-Ayt_A6cPc0kUonAbJI2bNzJHSwGnjKpc0a_MygQhvRB82vHP6tzKz9MlcbZJbwFk9xVCeh5WKeqekSoXCTsyFao06S0ThaJ3QRvkZWyFLuJ6G_JniTUSfvOhoPweeyMN-7w-_DvhiOFlYMkMcKvjZ9DUFvV9psr6sK3Yta9M8JYhaQImLTKu2Muuf4TWF033ujgAg6EbWnvzrWRiIWgWKE0RepCIAgzflwOIDjHGMrDxj1VfCL99kKvTGxGj7oQprLe9eNvNMvXEoPpDmiRlT8OQk5loZeb-JOVcEvVtTDqFqU4ixt6DMfFOMcdmvHtKlDcfUEj2z9rCcqaSufMaX2sX5GcW2qe5pmlGt6nea4nKp1t3GTKvdMyiFSP9__XSutXswkuIA5bPgfnUYEYKdyAERYi1gQ8Zr2K8jdXERNHa2THeeX7O9XrkBw4bnSrVvUqPljzJpxkcfmvkJf33Edlwk_-QckRdwU6n9-rjHMD7MtHm5suNxabZqfvZZrUT0AEyF6NYLCImJuavtTCE_m40]--></g></svg>