<svg xmlns="http://www.w3.org/2000/svg" xmlns:xlink="http://www.w3.org/1999/xlink" contentStyleType="text/css" height="588px" preserveAspectRatio="none" style="width:992px;height:588px;background:#FFFFFF;" version="1.1" viewBox="0 0 992 588" width="992px" zoomAndPan="magnify"><defs/><g><!--entity eve_nextdueexists--><g id="elem_eve_nextdueexists"><a href="#eve-nextdueexists" target="_top" title="#eve-nextdueexists" xlink:actuate="onRequest" xlink:href="#eve-nextdueexists" xlink:show="new" xlink:title="#eve-nextdueexists" xlink:type="simple"><polygon fill="#FFFFFF" points="454.88,27.48,399.23,6,287.91,6,232.25,27.48,287.91,48.97,399.23,48.97,454.88,27.48" style="stroke:#381885;stroke-width:2.0;"/><text fill="#000000" font-family="sans-serif" font-size="14" lengthAdjust="spacing" textLength="31.9648" x="287.9082" y="24.5352">Next</text><text fill="#000000" font-family="sans-serif" font-size="14" lengthAdjust="spacing" textLength="4.4297" x="319.873" y="24.5352">&#160;</text><text fill="#000000" font-family="sans-serif" font-size="14" lengthAdjust="spacing" textLength="25.2998" x="324.3027" y="24.5352">due</text><text fill="#000000" font-family="sans-serif" font-size="14" lengthAdjust="spacing" textLength="4.4297" x="349.6025" y="24.5352">&#160;</text><text fill="#000000" font-family="sans-serif" font-size="14" lengthAdjust="spacing" textLength="29.5791" x="354.0322" y="24.5352">date</text><text fill="#000000" font-family="sans-serif" font-size="14" lengthAdjust="spacing" textLength="4.4297" x="383.6113" y="24.5352">&#160;</text><text fill="#000000" font-family="sans-serif" font-size="14" lengthAdjust="spacing" textLength="11.1836" x="388.041" y="24.5352">is</text><text fill="#000000" font-family="sans-serif" font-size="14" lengthAdjust="spacing" textLength="65.0986" x="311.0171" y="41.0234">available?</text></a></g><!--entity eve_noscreening27mo--><g id="elem_eve_noscreening27mo"><a href="#eve-noscreening27mo" target="_top" title="#eve-noscreening27mo" xlink:actuate="onRequest" xlink:href="#eve-noscreening27mo" xlink:show="new" xlink:title="#eve-noscreening27mo" xlink:type="simple"><polygon fill="#FFFFFF" points="328,138.7,258.78,108.97,120.35,108.97,51.13,138.7,120.35,168.44,258.78,168.44,328,138.7" style="stroke:#381885;stroke-width:2.0;"/><text fill="#000000" font-family="sans-serif" font-size="14" lengthAdjust="spacing" textLength="26.1885" x="124.6437" y="127.5052">Age</text><text fill="#000000" font-family="sans-serif" font-size="14" lengthAdjust="spacing" textLength="4.4297" x="150.8321" y="127.5052">&#160;</text><text fill="#000000" font-family="sans-serif" font-size="14" lengthAdjust="spacing" textLength="43.5107" x="155.2618" y="127.5052">40-74</text><text fill="#000000" font-family="sans-serif" font-size="14" lengthAdjust="spacing" textLength="4.4297" x="198.7726" y="127.5052">&#160;</text><text fill="#000000" font-family="sans-serif" font-size="14" lengthAdjust="spacing" textLength="51.2832" x="203.2023" y="127.5052">without</text><text fill="#000000" font-family="sans-serif" font-size="14" lengthAdjust="spacing" textLength="65.7891" x="120.3473" y="143.9934">screening</text><text fill="#000000" font-family="sans-serif" font-size="14" lengthAdjust="spacing" textLength="4.4297" x="186.1363" y="143.9934">&#160;</text><text fill="#000000" font-family="sans-serif" font-size="14" lengthAdjust="spacing" textLength="12.7354" x="190.566" y="143.9934">in</text><text fill="#000000" font-family="sans-serif" font-size="14" lengthAdjust="spacing" textLength="4.4297" x="203.3014" y="143.9934">&#160;</text><text fill="#000000" font-family="sans-serif" font-size="14" lengthAdjust="spacing" textLength="28.916" x="207.7311" y="143.9934">past</text><text fill="#000000" font-family="sans-serif" font-size="14" lengthAdjust="spacing" textLength="4.4297" x="236.6471" y="143.9934">&#160;</text><text fill="#000000" font-family="sans-serif" font-size="14" lengthAdjust="spacing" textLength="17.7051" x="241.0768" y="143.9934">27</text><text fill="#000000" font-family="sans-serif" font-size="14" lengthAdjust="spacing" textLength="57.3262" x="160.9015" y="160.4817">months?</text></a></g><!--entity eve_screeninginterval--><g id="elem_eve_screeninginterval"><a href="#eve-screeninginterval" target="_top" title="#eve-screeninginterval" xlink:actuate="onRequest" xlink:href="#eve-screeninginterval" xlink:show="new" xlink:title="#eve-screeninginterval" xlink:type="simple"><polygon fill="#FFFFFF" points="676.63,138.7,609.1,117.22,474.04,117.22,406.5,138.7,474.04,160.19,609.1,160.19,676.63,138.7" style="stroke:#381885;stroke-width:2.0;"/><text fill="#000000" font-family="sans-serif" font-size="14" lengthAdjust="spacing" textLength="56.2051" x="474.0322" y="135.7552">Selected</text><text fill="#000000" font-family="sans-serif" font-size="14" lengthAdjust="spacing" textLength="4.4297" x="530.2373" y="135.7552">&#160;</text><text fill="#000000" font-family="sans-serif" font-size="14" lengthAdjust="spacing" textLength="50.5244" x="534.667" y="135.7552">interval</text><text fill="#000000" font-family="sans-serif" font-size="14" lengthAdjust="spacing" textLength="4.4297" x="585.1914" y="135.7552">&#160;</text><text fill="#000000" font-family="sans-serif" font-size="14" lengthAdjust="spacing" textLength="19.4756" x="589.6211" y="135.7552">for</text><text fill="#000000" font-family="sans-serif" font-size="14" lengthAdjust="spacing" textLength="71.6953" x="505.7168" y="152.2434">screening?</text></a></g><!--entity eve_due--><g id="elem_eve_due"><a href="#eve-due" target="_top" title="#eve-due" xlink:actuate="onRequest" xlink:href="#eve-due" xlink:show="new" xlink:title="#eve-due" xlink:type="simple"><polygon fill="#FFFFFF" points="975.57,249.93,912.07,236.68,785.06,236.68,721.56,249.93,785.06,263.17,912.07,263.17,975.57,249.93" style="stroke:#381885;stroke-width:2.0;"/><text fill="#000000" font-family="sans-serif" font-size="14" lengthAdjust="spacing" textLength="26.9746" x="785.0624" y="255.2152">Due</text><text fill="#000000" font-family="sans-serif" font-size="14" lengthAdjust="spacing" textLength="4.4297" x="812.0371" y="255.2152">&#160;</text><text fill="#000000" font-family="sans-serif" font-size="14" lengthAdjust="spacing" textLength="19.4756" x="816.4667" y="255.2152">for</text><text fill="#000000" font-family="sans-serif" font-size="14" lengthAdjust="spacing" textLength="4.4297" x="835.9423" y="255.2152">&#160;</text><text fill="#000000" font-family="sans-serif" font-size="14" lengthAdjust="spacing" textLength="71.6953" x="840.372" y="255.2152">screening?</text></a></g><!--entity eve_dueannual--><g id="elem_eve_dueannual"><a href="#eve-dueannual" target="_top" title="#eve-dueannual" xlink:actuate="onRequest" xlink:href="#eve-dueannual" xlink:show="new" xlink:title="#eve-dueannual" xlink:type="simple"><polygon fill="#FFFFFF" points="686.45,249.93,636.01,228.44,535.13,228.44,484.68,249.93,535.13,271.41,636.01,271.41,686.45,249.93" style="stroke:#381885;stroke-width:2.0;"/><text fill="#000000" font-family="sans-serif" font-size="14" lengthAdjust="spacing" textLength="26.9746" x="535.1224" y="246.9752">Due</text><text fill="#000000" font-family="sans-serif" font-size="14" lengthAdjust="spacing" textLength="4.4297" x="562.097" y="246.9752">&#160;</text><text fill="#000000" font-family="sans-serif" font-size="14" lengthAdjust="spacing" textLength="19.4756" x="566.5267" y="246.9752">for</text><text fill="#000000" font-family="sans-serif" font-size="14" lengthAdjust="spacing" textLength="4.4297" x="586.0023" y="246.9752">&#160;</text><text fill="#000000" font-family="sans-serif" font-size="14" lengthAdjust="spacing" textLength="45.5752" x="590.432" y="246.9752">annual</text><text fill="#000000" font-family="sans-serif" font-size="14" lengthAdjust="spacing" textLength="71.6953" x="549.7171" y="263.4634">screening?</text></a></g><!--entity eve_duebiennial--><g id="elem_eve_duebiennial"><a href="#eve-duebiennial" target="_top" title="#eve-duebiennial" xlink:actuate="onRequest" xlink:href="#eve-duebiennial" xlink:show="new" xlink:title="#eve-duebiennial" xlink:type="simple"><polygon fill="#FFFFFF" points="449.74,249.93,395.15,228.44,285.98,228.44,231.4,249.93,285.98,271.41,395.15,271.41,449.74,249.93" style="stroke:#381885;stroke-width:2.0;"/><text fill="#000000" font-family="sans-serif" font-size="14" lengthAdjust="spacing" textLength="26.9746" x="285.985" y="246.9752">Due</text><text fill="#000000" font-family="sans-serif" font-size="14" lengthAdjust="spacing" textLength="4.4297" x="312.9596" y="246.9752">&#160;</text><text fill="#000000" font-family="sans-serif" font-size="14" lengthAdjust="spacing" textLength="19.4756" x="317.3893" y="246.9752">for</text><text fill="#000000" font-family="sans-serif" font-size="14" lengthAdjust="spacing" textLength="4.4297" x="336.8648" y="246.9752">&#160;</text><text fill="#000000" font-family="sans-serif" font-size="14" lengthAdjust="spacing" textLength="53.8604" x="341.2945" y="246.9752">biennial</text><text fill="#000000" font-family="sans-serif" font-size="14" lengthAdjust="spacing" textLength="71.6953" x="304.7223" y="263.4634">screening?</text></a></g><!--entity act_overdue--><g id="elem_act_overdue"><a href="#act-overdue" target="_top" title="#act-overdue" xlink:actuate="onRequest" xlink:href="#act-overdue" xlink:show="new" xlink:title="#act-overdue" xlink:type="simple"><rect fill="#F1F1F1" height="36.4883" rx="2.5" ry="2.5" style="stroke:#181818;stroke-width:0.5;" width="107.1172" x="637.01" y="342.17"/><text fill="#000000" font-family="sans-serif" font-size="14" lengthAdjust="spacing" textLength="28.0137" x="647.01" y="365.7052">Flag</text><text fill="#000000" font-family="sans-serif" font-size="14" lengthAdjust="spacing" textLength="4.4297" x="675.0237" y="365.7052">&#160;</text><text fill="#000000" font-family="sans-serif" font-size="14" lengthAdjust="spacing" textLength="54.6738" x="679.4534" y="365.7052">overdue</text></a></g><!--entity act_orderscreeningmammo--><g id="elem_act_orderscreeningmammo"><a href="#act-orderscreeningmammo" target="_top" title="#act-orderscreeningmammo" xlink:actuate="onRequest" xlink:href="#act-orderscreeningmammo" xlink:show="new" xlink:title="#act-orderscreeningmammo" xlink:type="simple"><rect fill="#F1F1F1" height="36.4883" rx="2.5" ry="2.5" style="stroke:#181818;stroke-width:0.5;" width="224.3945" x="524.37" y="449.41"/><text fill="#000000" font-family="sans-serif" font-size="14" lengthAdjust="spacing" textLength="38.9443" x="534.37" y="472.9452">Order</text><text fill="#000000" font-family="sans-serif" font-size="14" lengthAdjust="spacing" textLength="4.4297" x="573.3143" y="472.9452">&#160;</text><text fill="#000000" font-family="sans-serif" font-size="14" lengthAdjust="spacing" textLength="65.7891" x="577.744" y="472.9452">screening</text><text fill="#000000" font-family="sans-serif" font-size="14" lengthAdjust="spacing" textLength="4.4297" x="643.5331" y="472.9452">&#160;</text><text fill="#000000" font-family="sans-serif" font-size="14" lengthAdjust="spacing" textLength="90.8018" x="647.9628" y="472.9452">mammogram</text></a></g><!--entity act_determinedue--><g id="elem_act_determinedue"><a href="#act-determinedue" target="_top" title="#act-determinedue" xlink:actuate="onRequest" xlink:href="#act-determinedue" xlink:show="new" xlink:title="#act-determinedue" xlink:type="simple"><rect fill="#F1F1F1" height="36.4883" rx="2.5" ry="2.5" style="stroke:#181818;stroke-width:0.5;" width="189.1348" x="7" y="231.68"/><text fill="#000000" font-family="sans-serif" font-size="14" lengthAdjust="spacing" textLength="70.6563" x="17" y="255.2152">Determine</text><text fill="#000000" font-family="sans-serif" font-size="14" lengthAdjust="spacing" textLength="4.4297" x="87.6563" y="255.2152">&#160;</text><text fill="#000000" font-family="sans-serif" font-size="14" lengthAdjust="spacing" textLength="30.3105" x="92.0859" y="255.2152">next</text><text fill="#000000" font-family="sans-serif" font-size="14" lengthAdjust="spacing" textLength="4.4297" x="122.3965" y="255.2152">&#160;</text><text fill="#000000" font-family="sans-serif" font-size="14" lengthAdjust="spacing" textLength="25.2998" x="126.8262" y="255.2152">due</text><text fill="#000000" font-family="sans-serif" font-size="14" lengthAdjust="spacing" textLength="4.4297" x="152.126" y="255.2152">&#160;</text><text fill="#000000" font-family="sans-serif" font-size="14" lengthAdjust="spacing" textLength="29.5791" x="156.5557" y="255.2152">date</text></a></g><!--entity act_orderscreeningmri--><g id="elem_act_orderscreeningmri"><a href="#act-orderscreeningmri" target="_top" title="#act-orderscreeningmri" xlink:actuate="onRequest" xlink:href="#act-orderscreeningmri" xlink:show="new" xlink:title="#act-orderscreeningmri" xlink:type="simple"><rect fill="#F1F1F1" height="36.4883" rx="2.5" ry="2.5" style="stroke:#181818;stroke-width:0.5;" width="225.9189" x="523.61" y="545.9"/><text fill="#000000" font-family="sans-serif" font-size="14" lengthAdjust="spacing" textLength="38.9443" x="533.61" y="569.4352">Order</text><text fill="#000000" font-family="sans-serif" font-size="14" lengthAdjust="spacing" textLength="4.4297" x="572.5543" y="569.4352">&#160;</text><text fill="#000000" font-family="sans-serif" font-size="14" lengthAdjust="spacing" textLength="65.7891" x="576.984" y="569.4352">screening</text><text fill="#000000" font-family="sans-serif" font-size="14" lengthAdjust="spacing" textLength="4.4297" x="642.7731" y="569.4352">&#160;</text><text fill="#000000" font-family="sans-serif" font-size="14" lengthAdjust="spacing" textLength="24.9443" x="647.2028" y="569.4352">MRI</text><text fill="#000000" font-family="sans-serif" font-size="14" lengthAdjust="spacing" textLength="4.4297" x="672.1471" y="569.4352">&#160;</text><text fill="#000000" font-family="sans-serif" font-size="14" lengthAdjust="spacing" textLength="9.1943" x="676.5768" y="569.4352">if</text><text fill="#000000" font-family="sans-serif" font-size="14" lengthAdjust="spacing" textLength="4.4297" x="685.7711" y="569.4352">&#160;</text><text fill="#000000" font-family="sans-serif" font-size="14" lengthAdjust="spacing" textLength="49.3281" x="690.2008" y="569.4352">eligible</text></a></g><!--entity end_notdue1--><g id="elem_end_notdue1"><ellipse cx="877.57" cy="360.41" fill="#F1F1F1" rx="8" ry="8" style="stroke:#181818;stroke-width:0.5;"/><text fill="#000000" font-family="sans-serif" font-size="14" lengthAdjust="spacing" textLength="25.2998" x="864.9201" y="390.9452">end</text></g><!--entity end_notdue2--><g id="elem_end_notdue2"><ellipse cx="503.57" cy="360.41" fill="#F1F1F1" rx="8" ry="8" style="stroke:#181818;stroke-width:0.5;"/><text fill="#000000" font-family="sans-serif" font-size="14" lengthAdjust="spacing" textLength="25.2998" x="490.9201" y="390.9452">end</text></g><!--entity end_notdue3--><g id="elem_end_notdue3"><ellipse cx="340.57" cy="360.41" fill="#F1F1F1" rx="8" ry="8" style="stroke:#181818;stroke-width:0.5;"/><text fill="#000000" font-family="sans-serif" font-size="14" lengthAdjust="spacing" textLength="25.2998" x="327.9201" y="390.9452">end</text></g><!--link eve_nextdueexists to eve_screeninginterval--><g id="link_eve_nextdueexists_eve_screeninginterval"><path d="M430.69,37.35 C430.69,59.04 430.69,104.52 430.69,124.54 " fill="none" id="eve_nextdueexists-to-eve_screeninginterval" style="stroke:#181818;stroke-width:1.0;"/><polygon fill="#181818" points="430.69,130.54,434.69,121.54,430.69,125.54,426.69,121.54,430.69,130.54" style="stroke:#181818;stroke-width:1.0;"/><text fill="#000000" font-family="sans-serif" font-size="13" lengthAdjust="spacing" textLength="20.6616" x="409.69" y="80.5184">yes</text></g><!--link eve_nextdueexists to eve_noscreening27mo--><g id="link_eve_nextdueexists_eve_noscreening27mo"><path d="M280.13,46.35 C280.13,66.18 280.13,91.3 280.13,111.85 " fill="none" id="eve_nextdueexists-to-eve_noscreening27mo" style="stroke:#181818;stroke-width:1.0;"/><polygon fill="#181818" points="280.13,117.85,284.13,108.85,280.13,112.85,276.13,108.85,280.13,117.85" style="stroke:#181818;stroke-width:1.0;"/><text fill="#000000" font-family="sans-serif" font-size="13" lengthAdjust="spacing" textLength="16.0532" x="263.13" y="78.6684">no</text></g><!--link eve_noscreening27mo to act_determinedue--><g id="link_eve_noscreening27mo_act_determinedue"><path d="M123.63,168.8 C123.63,188.75 123.63,208.28 123.63,225.32 " fill="none" id="eve_noscreening27mo-to-act_determinedue" style="stroke:#181818;stroke-width:1.0;"/><polygon fill="#181818" points="123.63,231.32,127.63,222.32,123.63,226.32,119.63,222.32,123.63,231.32" style="stroke:#181818;stroke-width:1.0;"/><text fill="#000000" font-family="sans-serif" font-size="13" lengthAdjust="spacing" textLength="20.6616" x="102.63" y="196.6284">yes</text></g><!--link eve_screeninginterval to eve_due--><g id="link_eve_screeninginterval_eve_due"><path d="M678.01,138.7 C760,138.7 848.57,138.7 848.57,138.7 C848.57,138.7 848.57,200.59 848.57,230.29 " fill="none" id="eve_screeninginterval-to-eve_due" style="stroke:#181818;stroke-width:1.0;"/><polygon fill="#181818" points="848.57,236.29,852.57,227.29,848.57,231.29,844.57,227.29,848.57,236.29" style="stroke:#181818;stroke-width:1.0;"/><text fill="#000000" font-family="sans-serif" font-size="13" lengthAdjust="spacing" textLength="57.8716" x="754.08" y="135.2684">unknown</text></g><!--link eve_screeninginterval to eve_dueannual--><g id="link_eve_screeninginterval_eve_dueannual"><path d="M580.66,160.68 C580.66,180.18 580.66,202.51 580.66,222 " fill="none" id="eve_screeninginterval-to-eve_dueannual" style="stroke:#181818;stroke-width:1.0;"/><polygon fill="#181818" points="580.66,228,584.66,219,580.66,223,576.66,219,580.66,228" style="stroke:#181818;stroke-width:1.0;"/><text fill="#000000" font-family="sans-serif" font-size="13" lengthAdjust="spacing" textLength="42.3198" x="537.66" y="190.9084">annual</text></g><!--link eve_screeninginterval to eve_duebiennial--><g id="link_eve_screeninginterval_eve_duebiennial"><path d="M428.12,146 C428.12,165.62 428.12,213.47 428.12,234.93 " fill="none" id="eve_screeninginterval-to-eve_duebiennial" style="stroke:#181818;stroke-width:1.0;"/><polygon fill="#181818" points="428.12,240.93,432.12,231.93,428.12,235.93,424.12,231.93,428.12,240.93" style="stroke:#181818;stroke-width:1.0;"/><text fill="#000000" font-family="sans-serif" font-size="13" lengthAdjust="spacing" textLength="50.0132" x="377.12" y="190.0384">biennial</text></g><!--link eve_due to act_overdue--><g id="link_eve_due_act_overdue"><path d="M732.84,252.66 C732.84,264.82 732.84,308.66 732.84,336.09 " fill="none" id="eve_due-to-act_overdue" style="stroke:#181818;stroke-width:1.0;"/><polygon fill="#181818" points="732.84,342.09,736.84,333.09,732.84,337.09,728.84,333.09,732.84,342.09" style="stroke:#181818;stroke-width:1.0;"/><text fill="#000000" font-family="sans-serif" font-size="13" lengthAdjust="spacing" textLength="50.7686" x="681.84" y="293.9384">overdue</text></g><!--link eve_dueannual to act_overdue--><g id="link_eve_dueannual_act_overdue"><path d="M669.97,257.17 C669.97,274.17 669.97,311.02 669.97,335.84 " fill="none" id="eve_dueannual-to-act_overdue" style="stroke:#181818;stroke-width:1.0;"/><polygon fill="#181818" points="669.97,341.84,673.97,332.84,669.97,336.84,665.97,332.84,669.97,341.84" style="stroke:#181818;stroke-width:1.0;"/><text fill="#000000" font-family="sans-serif" font-size="13" lengthAdjust="spacing" textLength="50.7686" x="618.97" y="296.0784">overdue</text></g><!--link eve_duebiennial to act_overdue--><g id="link_eve_duebiennial_act_overdue"><path d="M422.35,261.1 C422.35,276.24 422.35,301.41 422.35,301.41 C422.35,301.41 653.49,301.41 653.49,301.41 C653.49,301.41 653.49,318.46 653.49,335.75 " fill="none" id="eve_duebiennial-to-act_overdue" style="stroke:#181818;stroke-width:1.0;"/><polygon fill="#181818" points="653.49,341.75,657.49,332.75,653.49,336.75,649.49,332.75,653.49,341.75" style="stroke:#181818;stroke-width:1.0;"/><text fill="#000000" font-family="sans-serif" font-size="13" lengthAdjust="spacing" textLength="50.7686" x="538.93" y="297.9784">overdue</text></g><!--link act_overdue to act_orderscreeningmammo--><g id="link_act_overdue_act_orderscreeningmammo"><path d="M690.57,379.09 C690.57,398.78 690.57,423.59 690.57,443.19 " fill="none" id="act_overdue-to-act_orderscreeningmammo" style="stroke:#181818;stroke-width:1.0;"/><polygon fill="#181818" points="690.57,449.19,694.57,440.19,690.57,444.19,686.57,440.19,690.57,449.19" style="stroke:#181818;stroke-width:1.0;"/></g><!--link eve_due to act_orderscreeningmammo--><g id="link_eve_due_act_orderscreeningmammo"><path d="M800.05,263.55 C800.05,311.21 800.05,467.66 800.05,467.66 C800.05,467.66 783.53,467.66 755.22,467.66 " fill="none" id="eve_due-to-act_orderscreeningmammo" style="stroke:#181818;stroke-width:1.0;"/><polygon fill="#181818" points="749.22,467.66,758.22,471.66,754.22,467.66,758.22,463.66,749.22,467.66" style="stroke:#181818;stroke-width:1.0;"/><text fill="#000000" font-family="sans-serif" font-size="13" lengthAdjust="spacing" textLength="23.4927" x="776.05" y="387.5884">due</text></g><!--link eve_dueannual to act_orderscreeningmammo--><g id="link_eve_dueannual_act_orderscreeningmammo"><path d="M583.79,271.6 C583.79,314.41 583.79,403.13 583.79,443.19 " fill="none" id="eve_dueannual-to-act_orderscreeningmammo" style="stroke:#181818;stroke-width:1.0;"/><polygon fill="#181818" points="583.79,449.19,587.79,440.19,583.79,444.19,579.79,440.19,583.79,449.19" style="stroke:#181818;stroke-width:1.0;"/><text fill="#000000" font-family="sans-serif" font-size="13" lengthAdjust="spacing" textLength="23.4927" x="559.79" y="356.9684">due</text></g><!--link eve_duebiennial to act_orderscreeningmammo--><g id="link_eve_duebiennial_act_orderscreeningmammo"><path d="M394.96,271.6 C394.96,326.67 394.96,467.66 394.96,467.66 C394.96,467.66 454.91,467.66 517.9,467.66 " fill="none" id="eve_duebiennial-to-act_orderscreeningmammo" style="stroke:#181818;stroke-width:1.0;"/><polygon fill="#181818" points="523.9,467.66,514.9,463.66,518.9,467.66,514.9,471.66,523.9,467.66" style="stroke:#181818;stroke-width:1.0;"/><text fill="#000000" font-family="sans-serif" font-size="13" lengthAdjust="spacing" textLength="23.4927" x="370.96" y="430.6684">due</text></g><!--link act_orderscreeningmammo to act_orderscreeningmri--><g id="link_act_orderscreeningmammo_act_orderscreeningmri"><path d="M636.57,486.26 C636.57,503.35 636.57,522.53 636.57,539.6 " fill="none" id="act_orderscreeningmammo-to-act_orderscreeningmri" style="stroke:#181818;stroke-width:1.0;"/><polygon fill="#181818" points="636.57,545.6,640.57,536.6,636.57,540.6,632.57,536.6,636.57,545.6" style="stroke:#181818;stroke-width:1.0;"/></g><!--link eve_due to end_notdue1--><g id="link_eve_due_end_notdue1"><path d="M877.57,263.47 C877.57,286.41 877.57,326.26 877.57,345.55 " fill="none" id="eve_due-to-end_notdue1" style="stroke:#181818;stroke-width:1.0;"/><polygon fill="#181818" points="877.57,351.55,881.57,342.55,877.57,346.55,873.57,342.55,877.57,351.55" style="stroke:#181818;stroke-width:1.0;"/><text fill="#000000" font-family="sans-serif" font-size="13" lengthAdjust="spacing" textLength="48.5215" x="828.57" y="304.0784">not due</text></g><!--link eve_dueannual to end_notdue2--><g id="link_eve_dueannual_end_notdue2"><path d="M507.63,260.12 C507.63,281.6 507.63,325.18 507.63,345.49 " fill="none" id="eve_dueannual-to-end_notdue2" style="stroke:#181818;stroke-width:1.0;"/><polygon fill="#181818" points="507.63,351.49,511.63,342.49,507.63,346.49,503.63,342.49,507.63,351.49" style="stroke:#181818;stroke-width:1.0;"/><text fill="#000000" font-family="sans-serif" font-size="13" lengthAdjust="spacing" textLength="48.5215" x="458.63" y="302.3784">not due</text></g><!--link eve_duebiennial to end_notdue3--><g id="link_eve_duebiennial_end_notdue3"><path d="M340.57,271.75 C340.57,296.16 340.57,328.49 340.57,345.63 " fill="none" id="eve_duebiennial-to-end_notdue3" style="stroke:#181818;stroke-width:1.0;"/><polygon fill="#181818" points="340.57,351.63,344.57,342.63,340.57,346.63,336.57,342.63,340.57,351.63" style="stroke:#181818;stroke-width:1.0;"/><text fill="#000000" font-family="sans-serif" font-size="13" lengthAdjust="spacing" textLength="48.5215" x="291.57" y="308.2584">not due</text></g><!--SRC=[ZPDRRzf048NV_Ij6v1ara4GWWwZIHhr8JIkrbVeGHT76djWhx5cqk-RIgl-zOrZR2xP3UK3ipDbl3gEpgOmHZ4MDokvM69Ybf9NG8eTC4fObKDgcAfWRkyjm4QIu5OaY-1C0V-x5LkP5_al6DWrXT7CvsvVVYMZvKQk2ulSgKpg4JIejmg7vXS4_Knaj2Oq9OTnKdVZYQZgQJczci6zyKbh-LcH5Tfl9X78a6qB4twXdmTz0OsG59HbsEXfNZivGvczE_jxWAsujn0L2BDYvD23MGcRYESEt0n06S8rFn1gMu5OQQ-3XuOABmwFYusD3l4qGhY-7aslOIDveOS546f4a9I09Li9O64yWPvUfyOQeMZQUvAeUSrps1_t0Z9U2CLFvxwr51YzADyCQT5sgXGxUQlZuErvA3x3SbqFmpwvBWgZWETrtNRCX70fTd6U9HBANLBSRLbLYMfEPmOTC9A3Mg5cn1uZ8FhbpUPcFGtSyllXDn-Zj07AHvohXXzDGIaKjsFThOhjrJBz3tdlEJmB8ps7DZgk-PzEllUxr_ljda2-0_18a1xhFiPOzVhLaVYHrLCAHuiFcAUQibj4VmNpEfyNY5StuFpHNjQRrs8R3HMU0GzYXwPMVl9aGI0KTTLQVxhZXjaOwzbvKq9BKXiu93x4EtMCufww26zQX3rp76NNv3AiS1qTZpeWgPf_CArQITdXF3RKL8VGQEoC-DTWdxsbsNzFIi-mbjuo4xRJgHRSbyYnwwQrb_m00]--></g></svg>