<svg xmlns="http://www.w3.org/2000/svg" xmlns:xlink="http://www.w3.org/1999/xlink" contentStyleType="text/css" height="572px" preserveAspectRatio="none" style="width:652px;height:572px;background:#FFFFFF;" version="1.1" viewBox="0 0 652 572" width="652px" zoomAndPan="magnify"><defs/><g><!--entity eve_female--><g id="elem_eve_female"><a href="#eve-female" target="_top" title="#eve-female" xlink:actuate="onRequest" xlink:href="#eve-female" xlink:show="new" xlink:title="#eve-female" xlink:type="simple"><polygon fill="#A4DBD8" points="635,27.48,570,6,440,6,375,27.48,440,48.97,570,48.97,635,27.48" style="stroke:#FF0000;stroke-width:1.0;"/><text fill="#000000" font-family="sans-serif" font-size="14" lengthAdjust="spacing" textLength="63" x="440" y="24.5352">Assigned</text><text fill="#000000" font-family="sans-serif" font-size="14" lengthAdjust="spacing" textLength="4" x="503" y="24.5352">&#160;</text><text fill="#000000" font-family="sans-serif" font-size="14" lengthAdjust="spacing" textLength="46" x="507" y="24.5352">female</text><text fill="#000000" font-family="sans-serif" font-size="14" lengthAdjust="spacing" textLength="4" x="553" y="24.5352">&#160;</text><text fill="#000000" font-family="sans-serif" font-size="14" lengthAdjust="spacing" textLength="13" x="557" y="24.5352">at</text><text fill="#000000" font-family="sans-serif" font-size="14" lengthAdjust="spacing" textLength="39" x="485.5" y="41.0234">birth?</text></a></g><!--entity eve_breastca--><g id="elem_eve_breastca"><a href="#eve-breastca" target="_top" title="#eve-breastca" xlink:actuate="onRequest" xlink:href="#eve-breastca" xlink:show="new" xlink:title="#eve-breastca" xlink:type="simple"><polygon fill="#A4DBD8" points="529,130.46,479,108.97,379,108.97,329,130.46,379,151.95,479,151.95,529,130.46" style="stroke:#FF0000;stroke-width:1.0;"/><text fill="#000000" font-family="sans-serif" font-size="14" lengthAdjust="spacing" textLength="53" x="379" y="127.5052">Current</text><text fill="#000000" font-family="sans-serif" font-size="14" lengthAdjust="spacing" textLength="4" x="432" y="127.5052">&#160;</text><text fill="#000000" font-family="sans-serif" font-size="14" lengthAdjust="spacing" textLength="43" x="436" y="127.5052">breast</text><text fill="#000000" font-family="sans-serif" font-size="14" lengthAdjust="spacing" textLength="51" x="403.5" y="143.9934">cancer?</text></a></g><!--entity eve_mastectomy--><g id="elem_eve_mastectomy"><a href="#eve-mastectomy" target="_top" title="#eve-mastectomy" xlink:actuate="onRequest" xlink:href="#eve-mastectomy" xlink:show="new" xlink:title="#eve-mastectomy" xlink:type="simple"><polygon fill="#A4DBD8" points="458,233.44,414,211.95,326,211.95,282,233.44,326,254.93,414,254.93,458,233.44" style="stroke:#FF0000;stroke-width:1.0;"/><text fill="#000000" font-family="sans-serif" font-size="14" lengthAdjust="spacing" textLength="28" x="326" y="230.4852">Past</text><text fill="#000000" font-family="sans-serif" font-size="14" lengthAdjust="spacing" textLength="4" x="354" y="230.4852">&#160;</text><text fill="#000000" font-family="sans-serif" font-size="14" lengthAdjust="spacing" textLength="56" x="358" y="230.4852">bilateral</text><text fill="#000000" font-family="sans-serif" font-size="14" lengthAdjust="spacing" textLength="88" x="326" y="246.9734">mastectomy?</text></a></g><!--entity eve_breastsymptoms--><g id="elem_eve_breastsymptoms"><a href="#eve-breastsymptoms" target="_top" title="#eve-breastsymptoms" xlink:actuate="onRequest" xlink:href="#eve-breastsymptoms" xlink:show="new" xlink:title="#eve-breastsymptoms" xlink:type="simple"><polygon fill="#A4DBD8" points="387,336.41,338.5,314.93,241.5,314.93,193,336.41,241.5,357.9,338.5,357.9,387,336.41" style="stroke:#FF0000;stroke-width:1.0;"/><text fill="#000000" font-family="sans-serif" font-size="14" lengthAdjust="spacing" textLength="42" x="241.5" y="333.4652">Breast</text><text fill="#000000" font-family="sans-serif" font-size="14" lengthAdjust="spacing" textLength="4" x="283.5" y="333.4652">&#160;</text><text fill="#000000" font-family="sans-serif" font-size="14" lengthAdjust="spacing" textLength="51" x="287.5" y="333.4652">disease</text><text fill="#000000" font-family="sans-serif" font-size="14" lengthAdjust="spacing" textLength="76" x="252" y="349.9534">symptoms?</text></a></g><!--entity eve_breastfindings--><g id="elem_eve_breastfindings"><a href="#eve-breastfindings" target="_top" title="#eve-breastfindings" xlink:actuate="onRequest" xlink:href="#eve-breastfindings" xlink:show="new" xlink:title="#eve-breastfindings" xlink:type="simple"><polygon fill="#A4DBD8" points="316,431.15,241,417.9,91,417.9,16,431.15,91,444.39,241,444.39,316,431.15" style="stroke:#FF0000;stroke-width:1.0;"/><text fill="#000000" font-family="sans-serif" font-size="14" lengthAdjust="spacing" textLength="42" x="91" y="436.4352">Breast</text><text fill="#000000" font-family="sans-serif" font-size="14" lengthAdjust="spacing" textLength="4" x="133" y="436.4352">&#160;</text><text fill="#000000" font-family="sans-serif" font-size="14" lengthAdjust="spacing" textLength="38" x="137" y="436.4352">exam</text><text fill="#000000" font-family="sans-serif" font-size="14" lengthAdjust="spacing" textLength="4" x="175" y="436.4352">&#160;</text><text fill="#000000" font-family="sans-serif" font-size="14" lengthAdjust="spacing" textLength="62" x="179" y="436.4352">findings?</text></a></g><!--entity end_noteligible--><g id="elem_end_noteligible"><ellipse cx="440" cy="533.39" fill="#A4DBD8" rx="8" ry="8" style="stroke:#181818;stroke-width:0.5;"/><text fill="#000000" font-family="sans-serif" font-size="14" lengthAdjust="spacing" textLength="26" x="427" y="563.9252">end</text></g><!--entity act_eligible--><g id="elem_act_eligible"><a href="#act-eligible" target="_top" title="#act-eligible" xlink:actuate="onRequest" xlink:href="#act-eligible" xlink:show="new" xlink:title="#act-eligible" xlink:type="simple"><rect fill="#F1F1F1" height="36.4883" rx="2.5" ry="2.5" style="stroke:#181818;stroke-width:0.5;" width="231" x="50.5" y="515.15"/><text fill="#000000" font-family="sans-serif" font-size="14" lengthAdjust="spacing" textLength="47" x="60.5" y="538.6852">Patient</text><text fill="#000000" font-family="sans-serif" font-size="14" lengthAdjust="spacing" textLength="4" x="107.5" y="538.6852">&#160;</text><text fill="#000000" font-family="sans-serif" font-size="14" lengthAdjust="spacing" textLength="11" x="111.5" y="538.6852">is</text><text fill="#000000" font-family="sans-serif" font-size="14" lengthAdjust="spacing" textLength="4" x="122.5" y="538.6852">&#160;</text><text fill="#000000" font-family="sans-serif" font-size="14" lengthAdjust="spacing" textLength="50" x="126.5" y="538.6852">eligible</text><text fill="#000000" font-family="sans-serif" font-size="14" lengthAdjust="spacing" textLength="4" x="176.5" y="538.6852">&#160;</text><text fill="#000000" font-family="sans-serif" font-size="14" lengthAdjust="spacing" textLength="20" x="180.5" y="538.6852">for</text><text fill="#000000" font-family="sans-serif" font-size="14" lengthAdjust="spacing" textLength="4" x="200.5" y="538.6852">&#160;</text><text fill="#000000" font-family="sans-serif" font-size="14" lengthAdjust="spacing" textLength="67" x="204.5" y="538.6852">screening</text></a></g><!--link eve_female to eve_breastca--><g id="link_eve_female_eve_breastca"><path d="M452,49.32 C452,66.8 452,85.19 452,102.65 " fill="none" id="eve_female-to-eve_breastca" style="stroke:#181818;stroke-width:1.0;"/><polygon fill="#181818" points="452,108.65,456,99.65,452,103.65,448,99.65,452,108.65" style="stroke:#181818;stroke-width:1.0;"/><text fill="#000000" font-family="sans-serif" font-size="13" lengthAdjust="spacing" textLength="21" x="430" y="75.5584">yes</text></g><!--link eve_female to end_noteligible--><g id="link_eve_female_end_noteligible"><path d="M582,45.49 C582,135.61 582,533.39 582,533.39 C582,533.39 485.97,533.39 454.88,533.39 " fill="none" id="eve_female-to-end_noteligible" style="stroke:#181818;stroke-width:1.0;"/><polygon fill="#181818" points="448.88,533.39,457.88,537.39,453.88,533.39,457.88,529.39,448.88,533.39" style="stroke:#181818;stroke-width:1.0;"/><text fill="#000000" font-family="sans-serif" font-size="13" lengthAdjust="spacing" textLength="16" x="565" y="352.5684">no</text></g><!--link eve_breastca to eve_mastectomy--><g id="link_eve_breastca_eve_mastectomy"><path d="M393.5,152.3 C393.5,169.77 393.5,188.16 393.5,205.63 " fill="none" id="eve_breastca-to-eve_mastectomy" style="stroke:#181818;stroke-width:1.0;"/><polygon fill="#181818" points="393.5,211.63,397.5,202.63,393.5,206.63,389.5,202.63,393.5,211.63" style="stroke:#181818;stroke-width:1.0;"/><text fill="#000000" font-family="sans-serif" font-size="13" lengthAdjust="spacing" textLength="16" x="376.5" y="178.5284">no</text></g><!--link eve_breastca to end_noteligible--><g id="link_eve_breastca_end_noteligible"><path d="M462.5,152.41 C462.5,235.84 462.5,522.76 462.5,527.34 " fill="none" id="eve_breastca-to-end_noteligible" style="stroke:#181818;stroke-width:1.0;"/><polygon fill="#181818" points="462.5,533.34,466.5,524.34,462.5,528.34,458.5,524.34,462.5,533.34" style="stroke:#181818;stroke-width:1.0;"/><text fill="#000000" font-family="sans-serif" font-size="13" lengthAdjust="spacing" textLength="21" x="440.5" y="339.4384">yes</text></g><!--link eve_mastectomy to eve_breastsymptoms--><g id="link_eve_mastectomy_eve_breastsymptoms"><path d="M334.5,255.28 C334.5,272.75 334.5,291.14 334.5,308.61 " fill="none" id="eve_mastectomy-to-eve_breastsymptoms" style="stroke:#181818;stroke-width:1.0;"/><polygon fill="#181818" points="334.5,314.61,338.5,305.61,334.5,309.61,330.5,305.61,334.5,314.61" style="stroke:#181818;stroke-width:1.0;"/><text fill="#000000" font-family="sans-serif" font-size="13" lengthAdjust="spacing" textLength="16" x="317.5" y="281.5084">no</text></g><!--link eve_mastectomy to end_noteligible--><g id="link_eve_mastectomy_end_noteligible"><path d="M435.5,244.83 C435.5,293.2 435.5,475.06 435.5,518.42 " fill="none" id="eve_mastectomy-to-end_noteligible" style="stroke:#181818;stroke-width:1.0;"/><polygon fill="#181818" points="435.5,524.42,439.5,515.42,435.5,519.42,431.5,515.42,435.5,524.42" style="stroke:#181818;stroke-width:1.0;"/><text fill="#000000" font-family="sans-serif" font-size="13" lengthAdjust="spacing" textLength="21" x="413.5" y="381.1984">yes</text></g><!--link eve_breastsymptoms to end_noteligible--><g id="link_eve_breastsymptoms_end_noteligible"><path d="M351.5,352.59 C351.5,395.4 351.5,508.39 351.5,508.39 C351.5,508.39 431.26,508.39 433.94,508.39 " fill="none" id="eve_breastsymptoms-to-end_noteligible" style="stroke:#181818;stroke-width:1.0;"/><polygon fill="#181818" points="439.94,508.39,430.94,504.39,434.94,508.39,430.94,512.39,439.94,508.39" style="stroke:#181818;stroke-width:1.0;"/><text fill="#000000" font-family="sans-serif" font-size="13" lengthAdjust="spacing" textLength="21" x="329.5" y="471.2784">yes</text></g><!--link eve_breastsymptoms to eve_breastfindings--><g id="link_eve_breastsymptoms_eve_breastfindings"><path d="M254.5,358.39 C254.5,377.62 254.5,398.8 254.5,413.91 " fill="none" id="eve_breastsymptoms-to-eve_breastfindings" style="stroke:#181818;stroke-width:1.0;"/><polygon fill="#181818" points="254.5,419.91,258.5,410.91,254.5,414.91,250.5,410.91,254.5,419.91" style="stroke:#181818;stroke-width:1.0;"/><text fill="#000000" font-family="sans-serif" font-size="13" lengthAdjust="spacing" textLength="16" x="237.5" y="385.7184">no</text></g><!--link eve_breastfindings to end_noteligible--><g id="link_eve_breastfindings_end_noteligible"><path d="M298.75,434.64 C298.75,450.19 298.75,512.39 298.75,512.39 C298.75,512.39 429.62,512.39 433.9,512.39 " fill="none" id="eve_breastfindings-to-end_noteligible" style="stroke:#181818;stroke-width:1.0;"/><polygon fill="#181818" points="439.9,512.39,430.9,508.39,434.9,512.39,430.9,516.39,439.9,512.39" style="stroke:#181818;stroke-width:1.0;"/><text fill="#000000" font-family="sans-serif" font-size="13" lengthAdjust="spacing" textLength="21" x="308.45" y="508.9584">yes</text></g><!--link eve_breastfindings to act_eligible--><g id="link_eve_breastfindings_act_eligible"><path d="M166,444.51 C166,462.48 166,488.52 166,508.82 " fill="none" id="eve_breastfindings-to-act_eligible" style="stroke:#181818;stroke-width:1.0;"/><polygon fill="#181818" points="166,514.82,170,505.82,166,509.82,162,505.82,166,514.82" style="stroke:#181818;stroke-width:1.0;"/><text fill="#000000" font-family="sans-serif" font-size="13" lengthAdjust="spacing" textLength="16" x="149" y="476.2384">no</text></g><!--SRC=[bP9HI-D04CVVyoc6-jmx5OKZb4ghe0yAFXpSWqZPRgRDqEnisTsAyV2xEpLTDqchOXuIvZypl_tlJ4eg47n0XpRKQypyYdYjd39G4UDM0kj2QREH3tM5uwp4PxMq3FypaETEFPFPc7zKX3A7a_DZU9UdIg-kdTrmSMahwtAOd5rDh_uqoLi1_or9hnYzbwQaxeeT5ersOnszM0wgcbIqP8CSSj3oHfUzPWvrKBoiyA2Nq-ZbQyWlv6BNlsVwg74jLQFVlTiF9juBJ8mkq2Yne0BCIGPrCG3b0PzmjaiyF1n9D6oYnyT4kDmu9ovWxb3v05gnHfVQ6rch28Xn6t6_RPnJfUGkgW8ZeSp4cZfXaXP1IMcZfesBWhnyvO-epLfAVDzFrBkkede0AA611N51lDoZHRrBYwhGD3ajCnp8affMBcPi0yeYQIw9qKYKyRZrAyXC0ct7Ib8TonRMWTSEaONx3b8wp3xIShh4mnZBkMb_m-6ulOqSQlIzTDTJ3copTikEaCP-iA8FYSUajewJEF4FLhVkCrgt-MULUrlhtIFAtrDRbUqzR7bl]--></g></svg>